<mxfile host="app.diagrams.net" modified="2023-09-16T15:44:41.877Z" agent="Mozilla/5.0 (Windows NT 10.0; Win64; x64) AppleWebKit/537.36 (KHTML, like Gecko) Chrome/115.0.0.0 Safari/537.36 OPR/101.0.0.0" etag="AHC0XfhfvNqm8UqkfjHn" version="21.7.5" type="github">
  <diagram name="Page-1" id="9f46799a-70d6-7492-0946-bef42562c5a5">
    <mxGraphModel dx="2033" dy="1118" grid="1" gridSize="10" guides="1" tooltips="1" connect="1" arrows="1" fold="1" page="1" pageScale="1" pageWidth="1100" pageHeight="850" background="none" math="0" shadow="0">
      <root>
        <mxCell id="0" />
        <mxCell id="1" parent="0" />
        <mxCell id="78961159f06e98e8-17" value="Ordinary administrator" style="swimlane;html=1;fontStyle=1;align=center;verticalAlign=top;childLayout=stackLayout;horizontal=1;startSize=26;horizontalStack=0;resizeParent=1;resizeLast=0;collapsible=1;marginBottom=0;swimlaneFillColor=#ffffff;rounded=1;shadow=0;comic=0;labelBackgroundColor=none;strokeWidth=1;fillColor=none;fontFamily=Verdana;fontSize=12;" parent="1" vertex="1">
          <mxGeometry x="300" y="160" width="250" height="156" as="geometry">
            <mxRectangle x="100" y="83" width="270" height="30" as="alternateBounds" />
          </mxGeometry>
        </mxCell>
        <mxCell id="78961159f06e98e8-21" value="+&amp;nbsp;sales registration" style="text;html=1;strokeColor=none;fillColor=none;align=left;verticalAlign=top;spacingLeft=4;spacingRight=4;whiteSpace=wrap;overflow=hidden;rotatable=0;points=[[0,0.5],[1,0.5]];portConstraint=eastwest;labelBackgroundColor=none;rounded=1;" parent="78961159f06e98e8-17" vertex="1">
          <mxGeometry y="26" width="250" height="26" as="geometry" />
        </mxCell>
        <mxCell id="78961159f06e98e8-23" value="+ сlient verification" style="text;html=1;strokeColor=none;fillColor=none;align=left;verticalAlign=top;spacingLeft=4;spacingRight=4;whiteSpace=wrap;overflow=hidden;rotatable=0;points=[[0,0.5],[1,0.5]];portConstraint=eastwest;labelBackgroundColor=none;rounded=1;" parent="78961159f06e98e8-17" vertex="1">
          <mxGeometry y="52" width="250" height="26" as="geometry" />
        </mxCell>
        <mxCell id="78961159f06e98e8-25" value="+ client registration" style="text;html=1;strokeColor=none;fillColor=none;align=left;verticalAlign=top;spacingLeft=4;spacingRight=4;whiteSpace=wrap;overflow=hidden;rotatable=0;points=[[0,0.5],[1,0.5]];portConstraint=eastwest;labelBackgroundColor=none;rounded=1;" parent="78961159f06e98e8-17" vertex="1">
          <mxGeometry y="78" width="250" height="26" as="geometry" />
        </mxCell>
        <mxCell id="78961159f06e98e8-26" value="+ aboniment changes (freeze, re-issuance)" style="text;html=1;strokeColor=none;fillColor=none;align=left;verticalAlign=top;spacingLeft=4;spacingRight=4;whiteSpace=wrap;overflow=hidden;rotatable=0;points=[[0,0.5],[1,0.5]];portConstraint=eastwest;labelBackgroundColor=none;rounded=1;" parent="78961159f06e98e8-17" vertex="1">
          <mxGeometry y="104" width="250" height="26" as="geometry" />
        </mxCell>
        <mxCell id="UsbxNbq3lsT-JYxwhpn--75" value="+ cashbox&amp;nbsp;today (get info, set-del extra costs )" style="text;html=1;strokeColor=none;fillColor=none;align=left;verticalAlign=top;spacingLeft=4;spacingRight=4;whiteSpace=wrap;overflow=hidden;rotatable=0;points=[[0,0.5],[1,0.5]];portConstraint=eastwest;labelBackgroundColor=none;rounded=1;" parent="78961159f06e98e8-17" vertex="1">
          <mxGeometry y="130" width="250" height="26" as="geometry" />
        </mxCell>
        <mxCell id="UsbxNbq3lsT-JYxwhpn--99" style="edgeStyle=orthogonalEdgeStyle;rounded=1;orthogonalLoop=1;jettySize=auto;html=1;exitX=0.5;exitY=0;exitDx=0;exitDy=0;" parent="1" source="78961159f06e98e8-30" edge="1">
          <mxGeometry relative="1" as="geometry">
            <mxPoint x="385" y="590" as="targetPoint" />
          </mxGeometry>
        </mxCell>
        <mxCell id="78961159f06e98e8-30" value="(Table)Data of Client&amp;nbsp;&amp;nbsp;" style="swimlane;html=1;fontStyle=1;align=center;verticalAlign=top;childLayout=stackLayout;horizontal=1;startSize=26;horizontalStack=0;resizeParent=1;resizeLast=0;collapsible=1;marginBottom=0;swimlaneFillColor=#ffffff;rounded=1;shadow=0;comic=0;labelBackgroundColor=none;strokeWidth=1;fillColor=none;fontFamily=Verdana;fontSize=12;" parent="1" vertex="1">
          <mxGeometry x="300" y="620" width="170" height="152" as="geometry">
            <mxRectangle x="320" y="370" width="190" height="30" as="alternateBounds" />
          </mxGeometry>
        </mxCell>
        <mxCell id="78961159f06e98e8-31" value="+ personal data" style="text;html=1;strokeColor=none;fillColor=none;align=left;verticalAlign=top;spacingLeft=4;spacingRight=4;whiteSpace=wrap;overflow=hidden;rotatable=0;points=[[0,0.5],[1,0.5]];portConstraint=eastwest;labelBackgroundColor=none;rounded=1;" parent="78961159f06e98e8-30" vertex="1">
          <mxGeometry y="26" width="170" height="24" as="geometry" />
        </mxCell>
        <mxCell id="UsbxNbq3lsT-JYxwhpn--148" value="+ class (active||no)" style="text;html=1;strokeColor=none;fillColor=none;align=left;verticalAlign=top;spacingLeft=4;spacingRight=4;whiteSpace=wrap;overflow=hidden;rotatable=0;points=[[0,0.5],[1,0.5]];portConstraint=eastwest;labelBackgroundColor=none;rounded=1;" parent="78961159f06e98e8-30" vertex="1">
          <mxGeometry y="50" width="170" height="24" as="geometry" />
        </mxCell>
        <mxCell id="78961159f06e98e8-32" value="+&amp;nbsp;mentor(if no == none)" style="text;html=1;strokeColor=#b85450;fillColor=#f8cecc;align=left;verticalAlign=top;spacingLeft=4;spacingRight=4;whiteSpace=wrap;overflow=hidden;rotatable=0;points=[[0,0.5],[1,0.5]];portConstraint=eastwest;labelBackgroundColor=none;rounded=1;" parent="78961159f06e98e8-30" vertex="1">
          <mxGeometry y="74" width="170" height="26" as="geometry" />
        </mxCell>
        <mxCell id="78961159f06e98e8-34" value="+ subscription info&amp;nbsp;&amp;nbsp;" style="text;html=1;strokeColor=none;fillColor=none;align=left;verticalAlign=top;spacingLeft=4;spacingRight=4;whiteSpace=wrap;overflow=hidden;rotatable=0;points=[[0,0.5],[1,0.5]];portConstraint=eastwest;labelBackgroundColor=none;rounded=1;" parent="78961159f06e98e8-30" vertex="1">
          <mxGeometry y="100" width="170" height="26" as="geometry" />
        </mxCell>
        <mxCell id="78961159f06e98e8-36" value="+ history" style="text;html=1;strokeColor=#82b366;fillColor=#d5e8d4;align=left;verticalAlign=top;spacingLeft=4;spacingRight=4;whiteSpace=wrap;overflow=hidden;rotatable=0;points=[[0,0.5],[1,0.5]];portConstraint=eastwest;labelBackgroundColor=none;rounded=1;" parent="78961159f06e98e8-30" vertex="1">
          <mxGeometry y="126" width="170" height="26" as="geometry" />
        </mxCell>
        <mxCell id="78961159f06e98e8-43" value="(Table)Data of Mentor(trainer)" style="swimlane;html=1;fontStyle=1;align=center;verticalAlign=top;childLayout=stackLayout;horizontal=1;startSize=26;horizontalStack=0;resizeParent=1;resizeLast=0;collapsible=1;marginBottom=0;swimlaneFillColor=#ffffff;rounded=1;shadow=0;comic=0;labelBackgroundColor=none;strokeWidth=1;fillColor=none;fontFamily=Verdana;fontSize=12;" parent="1" vertex="1">
          <mxGeometry x="570" y="620" width="250" height="197" as="geometry" />
        </mxCell>
        <mxCell id="78961159f06e98e8-44" value="+ personal data&amp;nbsp;&lt;br&gt;" style="text;html=1;strokeColor=none;fillColor=none;align=left;verticalAlign=top;spacingLeft=4;spacingRight=4;whiteSpace=wrap;overflow=hidden;rotatable=0;points=[[0,0.5],[1,0.5]];portConstraint=eastwest;labelBackgroundColor=none;rounded=1;" parent="78961159f06e98e8-43" vertex="1">
          <mxGeometry y="26" width="250" height="26" as="geometry" />
        </mxCell>
        <mxCell id="78961159f06e98e8-52" value="+ number of clients" style="text;html=1;strokeColor=#b85450;fillColor=#f8cecc;align=left;verticalAlign=top;spacingLeft=4;spacingRight=4;whiteSpace=wrap;overflow=hidden;rotatable=0;points=[[0,0.5],[1,0.5]];portConstraint=eastwest;labelBackgroundColor=none;rounded=1;" parent="78961159f06e98e8-43" vertex="1">
          <mxGeometry y="52" width="250" height="26" as="geometry" />
        </mxCell>
        <mxCell id="78961159f06e98e8-50" value="+ payment" style="text;html=1;strokeColor=#9673a6;fillColor=#e1d5e7;align=left;verticalAlign=top;spacingLeft=4;spacingRight=4;whiteSpace=wrap;overflow=hidden;rotatable=0;points=[[0,0.5],[1,0.5]];portConstraint=eastwest;labelBackgroundColor=none;rounded=1;" parent="78961159f06e98e8-43" vertex="1">
          <mxGeometry y="78" width="250" height="26" as="geometry" />
        </mxCell>
        <mxCell id="78961159f06e98e8-45" value="+ history" style="text;html=1;strokeColor=#82b366;fillColor=#d5e8d4;align=left;verticalAlign=top;spacingLeft=4;spacingRight=4;whiteSpace=wrap;overflow=hidden;rotatable=0;points=[[0,0.5],[1,0.5]];portConstraint=eastwest;labelBackgroundColor=none;rounded=1;" parent="78961159f06e98e8-43" vertex="1">
          <mxGeometry y="104" width="250" height="26" as="geometry" />
        </mxCell>
        <mxCell id="78961159f06e98e8-95" value="(Table)Client history" style="swimlane;html=1;fontStyle=1;align=center;verticalAlign=top;childLayout=stackLayout;horizontal=1;startSize=26;horizontalStack=0;resizeParent=1;resizeLast=0;collapsible=1;marginBottom=0;swimlaneFillColor=#ffffff;rounded=1;shadow=0;comic=0;labelBackgroundColor=none;strokeWidth=1;fillColor=#d5e8d4;fontFamily=Verdana;fontSize=12;strokeColor=#82b366;" parent="1" vertex="1">
          <mxGeometry x="300" y="790" width="160" height="110" as="geometry" />
        </mxCell>
        <mxCell id="78961159f06e98e8-97" value="+ info about subscription&amp;nbsp; &amp;nbsp; &amp;nbsp; &amp;nbsp; &amp;nbsp;buys" style="text;html=1;strokeColor=none;fillColor=none;align=left;verticalAlign=top;spacingLeft=4;spacingRight=4;whiteSpace=wrap;overflow=hidden;rotatable=0;points=[[0,0.5],[1,0.5]];portConstraint=eastwest;labelBackgroundColor=none;rounded=1;" parent="78961159f06e98e8-95" vertex="1">
          <mxGeometry y="26" width="160" height="34" as="geometry" />
        </mxCell>
        <mxCell id="78961159f06e98e8-98" value="+ info about extra buys" style="text;html=1;strokeColor=none;fillColor=none;align=left;verticalAlign=top;spacingLeft=4;spacingRight=4;whiteSpace=wrap;overflow=hidden;rotatable=0;points=[[0,0.5],[1,0.5]];portConstraint=eastwest;labelBackgroundColor=none;rounded=1;" parent="78961159f06e98e8-95" vertex="1">
          <mxGeometry y="60" width="160" height="26" as="geometry" />
        </mxCell>
        <mxCell id="78961159f06e98e8-102" value="+ info about&amp;nbsp;visiting" style="text;html=1;strokeColor=none;fillColor=none;align=left;verticalAlign=top;spacingLeft=4;spacingRight=4;whiteSpace=wrap;overflow=hidden;rotatable=0;points=[[0,0.5],[1,0.5]];portConstraint=eastwest;labelBackgroundColor=none;rounded=1;" parent="78961159f06e98e8-95" vertex="1">
          <mxGeometry y="86" width="160" height="24" as="geometry" />
        </mxCell>
        <mxCell id="fIv8NUmb_XvfnNp-n-QR-128" style="edgeStyle=orthogonalEdgeStyle;rounded=1;orthogonalLoop=1;jettySize=auto;html=1;exitX=1;exitY=0.5;exitDx=0;exitDy=0;entryX=-0.006;entryY=0.041;entryDx=0;entryDy=0;entryPerimeter=0;labelBackgroundColor=none;fontColor=default;fillColor=#f8cecc;strokeColor=#b85450;" parent="1" source="78961159f06e98e8-32" target="78961159f06e98e8-43" edge="1">
          <mxGeometry relative="1" as="geometry" />
        </mxCell>
        <mxCell id="fIv8NUmb_XvfnNp-n-QR-129" style="edgeStyle=orthogonalEdgeStyle;rounded=1;orthogonalLoop=1;jettySize=auto;html=1;exitX=1;exitY=0.5;exitDx=0;exitDy=0;entryX=0.5;entryY=0;entryDx=0;entryDy=0;endArrow=none;endFill=0;startArrow=classic;startFill=1;fillColor=#d5e8d4;strokeColor=#82b366;" parent="1" source="78961159f06e98e8-36" target="78961159f06e98e8-95" edge="1">
          <mxGeometry relative="1" as="geometry" />
        </mxCell>
        <mxCell id="UsbxNbq3lsT-JYxwhpn--1" value="(Table)Mentor history" style="swimlane;html=1;fontStyle=1;align=center;verticalAlign=top;childLayout=stackLayout;horizontal=1;startSize=26;horizontalStack=0;resizeParent=1;resizeLast=0;collapsible=1;marginBottom=0;swimlaneFillColor=#ffffff;rounded=1;shadow=0;comic=0;labelBackgroundColor=none;strokeWidth=1;fillColor=#d5e8d4;fontFamily=Verdana;fontSize=12;strokeColor=#82b366;" parent="1" vertex="1">
          <mxGeometry x="615" y="847" width="160" height="129" as="geometry" />
        </mxCell>
        <mxCell id="UsbxNbq3lsT-JYxwhpn--2" value="+ info about sales" style="text;html=1;strokeColor=none;fillColor=none;align=left;verticalAlign=top;spacingLeft=4;spacingRight=4;whiteSpace=wrap;overflow=hidden;rotatable=0;points=[[0,0.5],[1,0.5]];portConstraint=eastwest;labelBackgroundColor=none;rounded=1;" parent="UsbxNbq3lsT-JYxwhpn--1" vertex="1">
          <mxGeometry y="26" width="160" height="26" as="geometry" />
        </mxCell>
        <mxCell id="UsbxNbq3lsT-JYxwhpn--3" value="+ info about admin time" style="text;html=1;strokeColor=#6c8ebf;fillColor=#dae8fc;align=left;verticalAlign=top;spacingLeft=4;spacingRight=4;whiteSpace=wrap;overflow=hidden;rotatable=0;points=[[0,0.5],[1,0.5]];portConstraint=eastwest;labelBackgroundColor=none;rounded=1;" parent="UsbxNbq3lsT-JYxwhpn--1" vertex="1">
          <mxGeometry y="52" width="160" height="26" as="geometry" />
        </mxCell>
        <mxCell id="UsbxNbq3lsT-JYxwhpn--4" value="+ info count clients( in the&amp;nbsp; &amp;nbsp; &amp;nbsp; &amp;nbsp;past)" style="text;html=1;strokeColor=none;fillColor=none;align=left;verticalAlign=top;spacingLeft=4;spacingRight=4;whiteSpace=wrap;overflow=hidden;rotatable=0;points=[[0,0.5],[1,0.5]];portConstraint=eastwest;labelBackgroundColor=none;rounded=1;" parent="UsbxNbq3lsT-JYxwhpn--1" vertex="1">
          <mxGeometry y="78" width="160" height="42" as="geometry" />
        </mxCell>
        <mxCell id="UsbxNbq3lsT-JYxwhpn--5" style="edgeStyle=orthogonalEdgeStyle;rounded=1;orthogonalLoop=1;jettySize=auto;html=1;exitX=1;exitY=0.5;exitDx=0;exitDy=0;entryX=0.5;entryY=0;entryDx=0;entryDy=0;endArrow=none;endFill=0;startArrow=classic;startFill=1;fillColor=#d5e8d4;strokeColor=#82b366;" parent="1" source="78961159f06e98e8-45" target="UsbxNbq3lsT-JYxwhpn--1" edge="1">
          <mxGeometry relative="1" as="geometry">
            <Array as="points">
              <mxPoint x="860" y="737" />
              <mxPoint x="860" y="830" />
              <mxPoint x="695" y="830" />
            </Array>
          </mxGeometry>
        </mxCell>
        <mxCell id="UsbxNbq3lsT-JYxwhpn--10" style="edgeStyle=orthogonalEdgeStyle;rounded=1;orthogonalLoop=1;jettySize=auto;html=1;entryX=1.006;entryY=0.641;entryDx=0;entryDy=0;entryPerimeter=0;startArrow=none;startFill=0;endArrow=none;endFill=0;fillColor=#f8cecc;strokeColor=#b85450;" parent="1" target="78961159f06e98e8-32" edge="1">
          <mxGeometry relative="1" as="geometry">
            <mxPoint x="530" y="707" as="sourcePoint" />
            <Array as="points">
              <mxPoint x="470" y="714" />
              <mxPoint x="470" y="687" />
            </Array>
          </mxGeometry>
        </mxCell>
        <mxCell id="UsbxNbq3lsT-JYxwhpn--9" style="edgeStyle=orthogonalEdgeStyle;rounded=1;orthogonalLoop=1;jettySize=auto;html=1;exitX=0;exitY=0.5;exitDx=0;exitDy=0;endArrow=none;endFill=0;startArrow=classic;startFill=1;fillColor=#f8cecc;strokeColor=#b85450;" parent="1" source="78961159f06e98e8-52" edge="1">
          <mxGeometry relative="1" as="geometry">
            <mxPoint x="530" y="707" as="targetPoint" />
          </mxGeometry>
        </mxCell>
        <mxCell id="UsbxNbq3lsT-JYxwhpn--170" style="edgeStyle=orthogonalEdgeStyle;rounded=1;orthogonalLoop=1;jettySize=auto;html=1;exitX=0;exitY=0.5;exitDx=0;exitDy=0;entryX=0.5;entryY=0;entryDx=0;entryDy=0;startArrow=none;startFill=0;endArrow=none;endFill=0;" parent="1" source="UsbxNbq3lsT-JYxwhpn--15" target="UsbxNbq3lsT-JYxwhpn--61" edge="1">
          <mxGeometry relative="1" as="geometry" />
        </mxCell>
        <mxCell id="UsbxNbq3lsT-JYxwhpn--171" style="edgeStyle=orthogonalEdgeStyle;rounded=1;orthogonalLoop=1;jettySize=auto;html=1;exitX=1;exitY=0.5;exitDx=0;exitDy=0;entryX=0.5;entryY=0;entryDx=0;entryDy=0;endArrow=none;endFill=0;" parent="1" source="UsbxNbq3lsT-JYxwhpn--15" target="UsbxNbq3lsT-JYxwhpn--102" edge="1">
          <mxGeometry relative="1" as="geometry" />
        </mxCell>
        <mxCell id="UsbxNbq3lsT-JYxwhpn--15" value="&lt;font style=&quot;font-size: 33px;&quot;&gt;&lt;b&gt;The Data&lt;/b&gt;&lt;/font&gt;" style="text;html=1;fillColor=#CCE5FF;align=center;verticalAlign=middle;whiteSpace=wrap;rounded=1;strokeColor=#36393d;" parent="1" vertex="1">
          <mxGeometry x="1100" y="400" width="170" height="50" as="geometry" />
        </mxCell>
        <mxCell id="UsbxNbq3lsT-JYxwhpn--16" value="Analytical expert" style="swimlane;html=1;fontStyle=1;align=center;verticalAlign=top;childLayout=stackLayout;horizontal=1;startSize=26;horizontalStack=0;resizeParent=1;resizeLast=0;collapsible=1;marginBottom=0;swimlaneFillColor=#ffffff;rounded=1;shadow=0;comic=0;labelBackgroundColor=none;strokeWidth=1;fillColor=none;fontFamily=Verdana;fontSize=12;" parent="1" vertex="1">
          <mxGeometry x="768" y="160" width="222" height="188" as="geometry">
            <mxRectangle x="100" y="83" width="270" height="30" as="alternateBounds" />
          </mxGeometry>
        </mxCell>
        <mxCell id="UsbxNbq3lsT-JYxwhpn--17" value="+ get sales history" style="text;html=1;strokeColor=none;fillColor=none;align=left;verticalAlign=top;spacingLeft=4;spacingRight=4;whiteSpace=wrap;overflow=hidden;rotatable=0;points=[[0,0.5],[1,0.5]];portConstraint=eastwest;labelBackgroundColor=none;rounded=1;" parent="UsbxNbq3lsT-JYxwhpn--16" vertex="1">
          <mxGeometry y="26" width="222" height="26" as="geometry" />
        </mxCell>
        <mxCell id="UsbxNbq3lsT-JYxwhpn--18" value="+ get&amp;nbsp; cashbox(in d Date)" style="text;html=1;strokeColor=none;fillColor=none;align=left;verticalAlign=top;spacingLeft=4;spacingRight=4;whiteSpace=wrap;overflow=hidden;rotatable=0;points=[[0,0.5],[1,0.5]];portConstraint=eastwest;labelBackgroundColor=none;rounded=1;" parent="UsbxNbq3lsT-JYxwhpn--16" vertex="1">
          <mxGeometry y="52" width="222" height="26" as="geometry" />
        </mxCell>
        <mxCell id="UsbxNbq3lsT-JYxwhpn--20" value="+ get&amp;nbsp;&amp;nbsp;&lt;a style=&quot;outline: 0px; text-decoration-line: none; font-family: Montserrat, Tahoma, Meiryo, sans-serif; font-size: 13px; background-color: rgb(245, 245, 245);&quot; rel=&quot;nofollow&quot; href=&quot;https://context.reverso.net/%D0%BF%D0%B5%D1%80%D0%B5%D0%B2%D0%BE%D0%B4/%D0%B0%D0%BD%D0%B3%D0%BB%D0%B8%D0%B9%D1%81%D0%BA%D0%B8%D0%B9-%D1%80%D1%83%D1%81%D1%81%D0%BA%D0%B8%D0%B9/wage+costs&quot; class=&quot;link_highlighted&quot;&gt;wage costs&lt;/a&gt;&amp;nbsp;+&amp;nbsp;&lt;a style=&quot;outline: 0px; text-decoration-line: none; font-family: Montserrat, Tahoma, Meiryo, sans-serif; font-size: 13px; background-color: rgb(255, 255, 255);&quot; rel=&quot;nofollow&quot; href=&quot;https://context.reverso.net/%D0%BF%D0%B5%D1%80%D0%B5%D0%B2%D0%BE%D0%B4/%D0%B0%D0%BD%D0%B3%D0%BB%D0%B8%D0%B9%D1%81%D0%BA%D0%B8%D0%B9-%D1%80%D1%83%D1%81%D1%81%D0%BA%D0%B8%D0%B9/consumables&quot; class=&quot;link_highlighted&quot;&gt;consumables&lt;/a&gt;()" style="text;html=1;strokeColor=none;fillColor=none;align=left;verticalAlign=top;spacingLeft=4;spacingRight=4;whiteSpace=wrap;overflow=hidden;rotatable=0;points=[[0,0.5],[1,0.5]];portConstraint=eastwest;labelBackgroundColor=none;rounded=1;" parent="UsbxNbq3lsT-JYxwhpn--16" vertex="1">
          <mxGeometry y="78" width="222" height="32" as="geometry" />
        </mxCell>
        <mxCell id="UsbxNbq3lsT-JYxwhpn--21" value="+ set percentage of payment" style="text;html=1;strokeColor=none;fillColor=none;align=left;verticalAlign=top;spacingLeft=4;spacingRight=4;whiteSpace=wrap;overflow=hidden;rotatable=0;points=[[0,0.5],[1,0.5]];portConstraint=eastwest;labelBackgroundColor=none;rounded=1;" parent="UsbxNbq3lsT-JYxwhpn--16" vertex="1">
          <mxGeometry y="110" width="222" height="26" as="geometry" />
        </mxCell>
        <mxCell id="UsbxNbq3lsT-JYxwhpn--77" value="+ get client history" style="text;html=1;strokeColor=none;fillColor=none;align=left;verticalAlign=top;spacingLeft=4;spacingRight=4;whiteSpace=wrap;overflow=hidden;rotatable=0;points=[[0,0.5],[1,0.5]];portConstraint=eastwest;labelBackgroundColor=none;rounded=1;" parent="UsbxNbq3lsT-JYxwhpn--16" vertex="1">
          <mxGeometry y="136" width="222" height="26" as="geometry" />
        </mxCell>
        <mxCell id="UsbxNbq3lsT-JYxwhpn--78" value="+ get mentor(trainer or admin) history" style="text;html=1;strokeColor=none;fillColor=none;align=left;verticalAlign=top;spacingLeft=4;spacingRight=4;whiteSpace=wrap;overflow=hidden;rotatable=0;points=[[0,0.5],[1,0.5]];portConstraint=eastwest;labelBackgroundColor=none;rounded=1;" parent="UsbxNbq3lsT-JYxwhpn--16" vertex="1">
          <mxGeometry y="162" width="222" height="26" as="geometry" />
        </mxCell>
        <mxCell id="UsbxNbq3lsT-JYxwhpn--28" style="edgeStyle=orthogonalEdgeStyle;rounded=1;orthogonalLoop=1;jettySize=auto;html=1;exitX=1;exitY=0.5;exitDx=0;exitDy=0;entryX=0.5;entryY=0;entryDx=0;entryDy=0;" parent="1" source="UsbxNbq3lsT-JYxwhpn--25" target="UsbxNbq3lsT-JYxwhpn--16" edge="1">
          <mxGeometry relative="1" as="geometry" />
        </mxCell>
        <mxCell id="UsbxNbq3lsT-JYxwhpn--29" style="edgeStyle=orthogonalEdgeStyle;rounded=1;orthogonalLoop=1;jettySize=auto;html=1;exitX=0;exitY=0.5;exitDx=0;exitDy=0;" parent="1" source="UsbxNbq3lsT-JYxwhpn--25" target="78961159f06e98e8-17" edge="1">
          <mxGeometry relative="1" as="geometry" />
        </mxCell>
        <mxCell id="UsbxNbq3lsT-JYxwhpn--25" value="&lt;div style=&quot;font-size: 33px;&quot;&gt;&lt;font style=&quot;font-size: 33px;&quot;&gt;Functional&amp;nbsp;&lt;/font&gt;&lt;/div&gt;" style="text;html=1;fillColor=#CCE5FF;align=right;verticalAlign=middle;whiteSpace=wrap;rounded=1;strokeColor=#36393d;" parent="1" vertex="1">
          <mxGeometry x="575" y="80" width="170" height="50" as="geometry" />
        </mxCell>
        <mxCell id="UsbxNbq3lsT-JYxwhpn--30" value="(Table)Mentor - Data of&amp;nbsp;payment" style="swimlane;html=1;fontStyle=1;align=center;verticalAlign=top;childLayout=stackLayout;horizontal=1;startSize=26;horizontalStack=0;resizeParent=1;resizeLast=0;collapsible=1;marginBottom=0;swimlaneFillColor=#ffffff;rounded=1;shadow=0;comic=0;labelBackgroundColor=none;strokeWidth=1;fontFamily=Verdana;fontSize=12;fillColor=#e1d5e7;strokeColor=#9673a6;" parent="1" vertex="1">
          <mxGeometry x="570" y="1000" width="260" height="197" as="geometry" />
        </mxCell>
        <mxCell id="2FqllGgzLhjcSwWF3z2h-2" style="edgeStyle=orthogonalEdgeStyle;rounded=1;orthogonalLoop=1;jettySize=auto;html=1;exitX=1;exitY=0.5;exitDx=0;exitDy=0;entryX=1;entryY=0.5;entryDx=0;entryDy=0;" parent="UsbxNbq3lsT-JYxwhpn--30" source="UsbxNbq3lsT-JYxwhpn--31" target="UsbxNbq3lsT-JYxwhpn--52" edge="1">
          <mxGeometry relative="1" as="geometry" />
        </mxCell>
        <mxCell id="UsbxNbq3lsT-JYxwhpn--31" value="+ admin time bonus" style="text;html=1;strokeColor=none;fillColor=none;align=left;verticalAlign=top;spacingLeft=4;spacingRight=4;whiteSpace=wrap;overflow=hidden;rotatable=0;points=[[0,0.5],[1,0.5]];portConstraint=eastwest;labelBackgroundColor=none;rounded=1;" parent="UsbxNbq3lsT-JYxwhpn--30" vertex="1">
          <mxGeometry y="26" width="260" height="26" as="geometry" />
        </mxCell>
        <mxCell id="UsbxNbq3lsT-JYxwhpn--33" value="+ percentage of payment(out of total income)" style="text;html=1;strokeColor=none;fillColor=none;align=left;verticalAlign=top;spacingLeft=4;spacingRight=4;whiteSpace=wrap;overflow=hidden;rotatable=0;points=[[0,0.5],[1,0.5]];portConstraint=eastwest;labelBackgroundColor=none;rounded=1;" parent="UsbxNbq3lsT-JYxwhpn--30" vertex="1">
          <mxGeometry y="52" width="260" height="26" as="geometry" />
        </mxCell>
        <mxCell id="2FqllGgzLhjcSwWF3z2h-5" style="edgeStyle=orthogonalEdgeStyle;rounded=1;orthogonalLoop=1;jettySize=auto;html=1;exitX=0;exitY=0.5;exitDx=0;exitDy=0;entryX=0;entryY=0.5;entryDx=0;entryDy=0;" parent="UsbxNbq3lsT-JYxwhpn--30" source="UsbxNbq3lsT-JYxwhpn--32" target="UsbxNbq3lsT-JYxwhpn--52" edge="1">
          <mxGeometry relative="1" as="geometry">
            <Array as="points">
              <mxPoint x="-10" y="91" />
              <mxPoint x="-10" y="125" />
            </Array>
          </mxGeometry>
        </mxCell>
        <mxCell id="UsbxNbq3lsT-JYxwhpn--32" value="+ clients number bonus" style="text;html=1;strokeColor=#b85450;fillColor=#f8cecc;align=left;verticalAlign=top;spacingLeft=4;spacingRight=4;whiteSpace=wrap;overflow=hidden;rotatable=0;points=[[0,0.5],[1,0.5]];portConstraint=eastwest;labelBackgroundColor=none;rounded=1;" parent="UsbxNbq3lsT-JYxwhpn--30" vertex="1">
          <mxGeometry y="78" width="260" height="26" as="geometry" />
        </mxCell>
        <mxCell id="UsbxNbq3lsT-JYxwhpn--49" value="" style="line;html=1;strokeWidth=1;fillColor=none;align=left;verticalAlign=middle;spacingTop=-1;spacingLeft=3;spacingRight=3;rotatable=0;labelPosition=right;points=[];portConstraint=eastwest;rounded=1;" parent="UsbxNbq3lsT-JYxwhpn--30" vertex="1">
          <mxGeometry y="104" width="260" height="8" as="geometry" />
        </mxCell>
        <mxCell id="UsbxNbq3lsT-JYxwhpn--52" value="+ get payment(): result payment" style="text;html=1;strokeColor=#9673a6;fillColor=#e1d5e7;align=left;verticalAlign=top;spacingLeft=4;spacingRight=4;whiteSpace=wrap;overflow=hidden;rotatable=0;points=[[0,0.5],[1,0.5]];portConstraint=eastwest;labelBackgroundColor=none;rounded=1;" parent="UsbxNbq3lsT-JYxwhpn--30" vertex="1">
          <mxGeometry y="112" width="260" height="26" as="geometry" />
        </mxCell>
        <mxCell id="UsbxNbq3lsT-JYxwhpn--39" style="edgeStyle=orthogonalEdgeStyle;rounded=1;orthogonalLoop=1;jettySize=auto;html=1;entryX=1;entryY=0.5;entryDx=0;entryDy=0;endArrow=halfCircle;endFill=0;fillColor=#e1d5e7;strokeColor=#9673a6;" parent="1" target="UsbxNbq3lsT-JYxwhpn--52" edge="1">
          <mxGeometry relative="1" as="geometry">
            <mxPoint x="870" y="750" as="sourcePoint" />
          </mxGeometry>
        </mxCell>
        <mxCell id="UsbxNbq3lsT-JYxwhpn--38" style="edgeStyle=orthogonalEdgeStyle;rounded=1;orthogonalLoop=1;jettySize=auto;html=1;exitX=1;exitY=0.5;exitDx=0;exitDy=0;endArrow=none;endFill=0;startArrow=classic;startFill=1;fillColor=#e1d5e7;strokeColor=#9673a6;" parent="1" source="78961159f06e98e8-50" edge="1">
          <mxGeometry relative="1" as="geometry">
            <mxPoint x="870" y="750" as="targetPoint" />
          </mxGeometry>
        </mxCell>
        <mxCell id="UsbxNbq3lsT-JYxwhpn--61" value="(Table)List of Clients&amp;nbsp;&amp;nbsp;" style="swimlane;html=1;fontStyle=1;align=center;verticalAlign=top;childLayout=stackLayout;horizontal=1;startSize=26;horizontalStack=0;resizeParent=1;resizeLast=0;collapsible=1;marginBottom=0;swimlaneFillColor=#ffffff;rounded=1;shadow=0;comic=0;labelBackgroundColor=none;strokeWidth=1;fillColor=none;fontFamily=Verdana;fontSize=12;" parent="1" vertex="1">
          <mxGeometry x="285" y="530" width="190" height="60" as="geometry">
            <mxRectangle x="320" y="370" width="190" height="30" as="alternateBounds" />
          </mxGeometry>
        </mxCell>
        <mxCell id="UsbxNbq3lsT-JYxwhpn--62" value="+ (Obj)Client" style="text;html=1;strokeColor=none;fillColor=none;align=left;verticalAlign=top;spacingLeft=4;spacingRight=4;whiteSpace=wrap;overflow=hidden;rotatable=0;points=[[0,0.5],[1,0.5]];portConstraint=eastwest;labelBackgroundColor=none;rounded=1;" parent="UsbxNbq3lsT-JYxwhpn--61" vertex="1">
          <mxGeometry y="26" width="190" height="24" as="geometry" />
        </mxCell>
        <mxCell id="UsbxNbq3lsT-JYxwhpn--70" style="edgeStyle=orthogonalEdgeStyle;rounded=1;orthogonalLoop=1;jettySize=auto;html=1;exitX=0.5;exitY=1;exitDx=0;exitDy=0;endArrow=none;endFill=0;startArrow=classic;startFill=1;" parent="1" source="UsbxNbq3lsT-JYxwhpn--68" target="78961159f06e98e8-43" edge="1">
          <mxGeometry relative="1" as="geometry" />
        </mxCell>
        <mxCell id="UsbxNbq3lsT-JYxwhpn--169" style="edgeStyle=orthogonalEdgeStyle;rounded=1;orthogonalLoop=1;jettySize=auto;html=1;exitX=0.5;exitY=0;exitDx=0;exitDy=0;entryX=0.5;entryY=1;entryDx=0;entryDy=0;endArrow=none;endFill=0;" parent="1" source="UsbxNbq3lsT-JYxwhpn--68" target="UsbxNbq3lsT-JYxwhpn--15" edge="1">
          <mxGeometry relative="1" as="geometry" />
        </mxCell>
        <mxCell id="UsbxNbq3lsT-JYxwhpn--68" value="(Table)List of Mentors&amp;nbsp;&amp;nbsp;" style="swimlane;html=1;fontStyle=1;align=center;verticalAlign=top;childLayout=stackLayout;horizontal=1;startSize=26;horizontalStack=0;resizeParent=1;resizeLast=0;collapsible=1;marginBottom=0;swimlaneFillColor=#ffffff;rounded=1;shadow=0;comic=0;labelBackgroundColor=none;strokeWidth=1;fillColor=none;fontFamily=Verdana;fontSize=12;" parent="1" vertex="1">
          <mxGeometry x="602.5" y="530" width="185" height="60" as="geometry">
            <mxRectangle x="320" y="370" width="190" height="30" as="alternateBounds" />
          </mxGeometry>
        </mxCell>
        <mxCell id="UsbxNbq3lsT-JYxwhpn--69" value="+ (Obj) mentor(trainer) or admin" style="text;html=1;strokeColor=none;fillColor=none;align=left;verticalAlign=top;spacingLeft=4;spacingRight=4;whiteSpace=wrap;overflow=hidden;rotatable=0;points=[[0,0.5],[1,0.5]];portConstraint=eastwest;labelBackgroundColor=none;rounded=1;" parent="UsbxNbq3lsT-JYxwhpn--68" vertex="1">
          <mxGeometry y="26" width="185" height="24" as="geometry" />
        </mxCell>
        <mxCell id="UsbxNbq3lsT-JYxwhpn--79" value="(Table)Data of Admin" style="swimlane;html=1;fontStyle=1;align=center;verticalAlign=top;childLayout=stackLayout;horizontal=1;startSize=26;horizontalStack=0;resizeParent=1;resizeLast=0;collapsible=1;marginBottom=0;swimlaneFillColor=#ffffff;rounded=1;shadow=0;comic=0;labelBackgroundColor=none;strokeWidth=1;fillColor=none;fontFamily=Verdana;fontSize=12;" parent="1" vertex="1">
          <mxGeometry x="900" y="630" width="250" height="197" as="geometry" />
        </mxCell>
        <mxCell id="UsbxNbq3lsT-JYxwhpn--80" value="+ personal data&amp;nbsp;&lt;br&gt;" style="text;html=1;strokeColor=none;fillColor=none;align=left;verticalAlign=top;spacingLeft=4;spacingRight=4;whiteSpace=wrap;overflow=hidden;rotatable=0;points=[[0,0.5],[1,0.5]];portConstraint=eastwest;labelBackgroundColor=none;rounded=1;" parent="UsbxNbq3lsT-JYxwhpn--79" vertex="1">
          <mxGeometry y="26" width="250" height="26" as="geometry" />
        </mxCell>
        <mxCell id="UsbxNbq3lsT-JYxwhpn--82" value="+ payment" style="text;html=1;strokeColor=#9673a6;fillColor=#e1d5e7;align=left;verticalAlign=top;spacingLeft=4;spacingRight=4;whiteSpace=wrap;overflow=hidden;rotatable=0;points=[[0,0.5],[1,0.5]];portConstraint=eastwest;labelBackgroundColor=none;rounded=1;" parent="UsbxNbq3lsT-JYxwhpn--79" vertex="1">
          <mxGeometry y="52" width="250" height="26" as="geometry" />
        </mxCell>
        <mxCell id="UsbxNbq3lsT-JYxwhpn--83" value="+ history" style="text;html=1;strokeColor=#82b366;fillColor=#d5e8d4;align=left;verticalAlign=top;spacingLeft=4;spacingRight=4;whiteSpace=wrap;overflow=hidden;rotatable=0;points=[[0,0.5],[1,0.5]];portConstraint=eastwest;labelBackgroundColor=none;rounded=1;" parent="UsbxNbq3lsT-JYxwhpn--79" vertex="1">
          <mxGeometry y="78" width="250" height="26" as="geometry" />
        </mxCell>
        <mxCell id="UsbxNbq3lsT-JYxwhpn--84" value="(Table)Admin - Data of&amp;nbsp;payment" style="swimlane;html=1;fontStyle=1;align=center;verticalAlign=top;childLayout=stackLayout;horizontal=1;startSize=26;horizontalStack=0;resizeParent=1;resizeLast=0;collapsible=1;marginBottom=0;swimlaneFillColor=#ffffff;rounded=1;shadow=0;comic=0;labelBackgroundColor=none;strokeWidth=1;fontFamily=Verdana;fontSize=12;fillColor=#e1d5e7;strokeColor=#9673a6;" parent="1" vertex="1">
          <mxGeometry x="900" y="976" width="260" height="197" as="geometry" />
        </mxCell>
        <mxCell id="UsbxNbq3lsT-JYxwhpn--91" style="edgeStyle=orthogonalEdgeStyle;rounded=1;orthogonalLoop=1;jettySize=auto;html=1;exitX=0;exitY=0.5;exitDx=0;exitDy=0;entryX=0;entryY=0.5;entryDx=0;entryDy=0;" parent="UsbxNbq3lsT-JYxwhpn--84" source="UsbxNbq3lsT-JYxwhpn--85" target="UsbxNbq3lsT-JYxwhpn--89" edge="1">
          <mxGeometry relative="1" as="geometry" />
        </mxCell>
        <mxCell id="UsbxNbq3lsT-JYxwhpn--85" value="+ admin time bonus" style="text;html=1;strokeColor=none;fillColor=none;align=left;verticalAlign=top;spacingLeft=4;spacingRight=4;whiteSpace=wrap;overflow=hidden;rotatable=0;points=[[0,0.5],[1,0.5]];portConstraint=eastwest;labelBackgroundColor=none;rounded=1;" parent="UsbxNbq3lsT-JYxwhpn--84" vertex="1">
          <mxGeometry y="26" width="260" height="26" as="geometry" />
        </mxCell>
        <mxCell id="UsbxNbq3lsT-JYxwhpn--92" style="edgeStyle=orthogonalEdgeStyle;rounded=1;orthogonalLoop=1;jettySize=auto;html=1;exitX=0;exitY=0.5;exitDx=0;exitDy=0;entryX=0;entryY=0.5;entryDx=0;entryDy=0;" parent="UsbxNbq3lsT-JYxwhpn--84" source="UsbxNbq3lsT-JYxwhpn--86" target="UsbxNbq3lsT-JYxwhpn--89" edge="1">
          <mxGeometry relative="1" as="geometry">
            <Array as="points">
              <mxPoint x="-20" y="65" />
              <mxPoint x="-20" y="99" />
            </Array>
          </mxGeometry>
        </mxCell>
        <mxCell id="UsbxNbq3lsT-JYxwhpn--86" value="+ percentage of payment(out of total income)" style="text;html=1;strokeColor=none;fillColor=none;align=left;verticalAlign=top;spacingLeft=4;spacingRight=4;whiteSpace=wrap;overflow=hidden;rotatable=0;points=[[0,0.5],[1,0.5]];portConstraint=eastwest;labelBackgroundColor=none;rounded=1;" parent="UsbxNbq3lsT-JYxwhpn--84" vertex="1">
          <mxGeometry y="52" width="260" height="26" as="geometry" />
        </mxCell>
        <mxCell id="UsbxNbq3lsT-JYxwhpn--88" value="" style="line;html=1;strokeWidth=1;fillColor=none;align=left;verticalAlign=middle;spacingTop=-1;spacingLeft=3;spacingRight=3;rotatable=0;labelPosition=right;points=[];portConstraint=eastwest;rounded=1;" parent="UsbxNbq3lsT-JYxwhpn--84" vertex="1">
          <mxGeometry y="78" width="260" height="8" as="geometry" />
        </mxCell>
        <mxCell id="UsbxNbq3lsT-JYxwhpn--89" value="+ get payment(): result payment" style="text;html=1;strokeColor=#9673a6;fillColor=#e1d5e7;align=left;verticalAlign=top;spacingLeft=4;spacingRight=4;whiteSpace=wrap;overflow=hidden;rotatable=0;points=[[0,0.5],[1,0.5]];portConstraint=eastwest;labelBackgroundColor=none;rounded=1;" parent="UsbxNbq3lsT-JYxwhpn--84" vertex="1">
          <mxGeometry y="86" width="260" height="26" as="geometry" />
        </mxCell>
        <mxCell id="UsbxNbq3lsT-JYxwhpn--90" style="edgeStyle=orthogonalEdgeStyle;rounded=1;orthogonalLoop=1;jettySize=auto;html=1;exitX=1;exitY=0.5;exitDx=0;exitDy=0;entryX=1;entryY=0.5;entryDx=0;entryDy=0;endArrow=none;endFill=0;startArrow=classic;startFill=1;fillColor=#e1d5e7;strokeColor=#9673a6;" parent="1" source="UsbxNbq3lsT-JYxwhpn--82" target="UsbxNbq3lsT-JYxwhpn--89" edge="1">
          <mxGeometry relative="1" as="geometry" />
        </mxCell>
        <mxCell id="UsbxNbq3lsT-JYxwhpn--93" style="edgeStyle=orthogonalEdgeStyle;rounded=1;orthogonalLoop=1;jettySize=auto;html=1;exitX=1;exitY=0.5;exitDx=0;exitDy=0;entryX=0.5;entryY=0;entryDx=0;entryDy=0;endArrow=none;endFill=0;" parent="1" source="UsbxNbq3lsT-JYxwhpn--69" target="UsbxNbq3lsT-JYxwhpn--79" edge="1">
          <mxGeometry relative="1" as="geometry" />
        </mxCell>
        <mxCell id="UsbxNbq3lsT-JYxwhpn--94" style="edgeStyle=orthogonalEdgeStyle;rounded=1;orthogonalLoop=1;jettySize=auto;html=1;exitX=0;exitY=0.5;exitDx=0;exitDy=0;entryX=0;entryY=0.5;entryDx=0;entryDy=0;fillColor=#dae8fc;strokeColor=#6c8ebf;" parent="1" source="UsbxNbq3lsT-JYxwhpn--3" target="UsbxNbq3lsT-JYxwhpn--31" edge="1">
          <mxGeometry relative="1" as="geometry">
            <Array as="points">
              <mxPoint x="550" y="912" />
              <mxPoint x="550" y="1039" />
            </Array>
          </mxGeometry>
        </mxCell>
        <mxCell id="UsbxNbq3lsT-JYxwhpn--96" style="edgeStyle=orthogonalEdgeStyle;rounded=1;orthogonalLoop=1;jettySize=auto;html=1;exitX=1;exitY=0.5;exitDx=0;exitDy=0;entryX=1;entryY=0.5;entryDx=0;entryDy=0;fillColor=#f8cecc;strokeColor=#b85450;" parent="1" source="78961159f06e98e8-52" target="UsbxNbq3lsT-JYxwhpn--32" edge="1">
          <mxGeometry relative="1" as="geometry" />
        </mxCell>
        <mxCell id="UsbxNbq3lsT-JYxwhpn--97" style="edgeStyle=orthogonalEdgeStyle;rounded=1;orthogonalLoop=1;jettySize=auto;html=1;exitX=1;exitY=0.5;exitDx=0;exitDy=0;entryX=0;entryY=0.5;entryDx=0;entryDy=0;fillColor=#f8cecc;strokeColor=#b85450;" parent="1" source="78961159f06e98e8-32" target="UsbxNbq3lsT-JYxwhpn--4" edge="1">
          <mxGeometry relative="1" as="geometry" />
        </mxCell>
        <mxCell id="UsbxNbq3lsT-JYxwhpn--102" value="(Table)List of Data for Analytics&amp;nbsp;" style="swimlane;html=1;fontStyle=1;align=center;verticalAlign=top;childLayout=stackLayout;horizontal=1;startSize=26;horizontalStack=0;resizeParent=1;resizeLast=0;collapsible=1;marginBottom=0;swimlaneFillColor=#ffffff;rounded=1;shadow=0;comic=0;labelBackgroundColor=none;strokeWidth=1;fillColor=none;fontFamily=Verdana;fontSize=12;" parent="1" vertex="1">
          <mxGeometry x="1600" y="510" width="240" height="60" as="geometry">
            <mxRectangle x="320" y="370" width="190" height="30" as="alternateBounds" />
          </mxGeometry>
        </mxCell>
        <mxCell id="UsbxNbq3lsT-JYxwhpn--103" value="+ (Obj) analytic list" style="text;html=1;strokeColor=none;fillColor=none;align=left;verticalAlign=top;spacingLeft=4;spacingRight=4;whiteSpace=wrap;overflow=hidden;rotatable=0;points=[[0,0.5],[1,0.5]];portConstraint=eastwest;labelBackgroundColor=none;rounded=1;" parent="UsbxNbq3lsT-JYxwhpn--102" vertex="1">
          <mxGeometry y="26" width="240" height="24" as="geometry" />
        </mxCell>
        <mxCell id="UsbxNbq3lsT-JYxwhpn--104" value="(Table)Mentor history" style="swimlane;html=1;fontStyle=1;align=center;verticalAlign=top;childLayout=stackLayout;horizontal=1;startSize=26;horizontalStack=0;resizeParent=1;resizeLast=0;collapsible=1;marginBottom=0;swimlaneFillColor=#ffffff;rounded=1;shadow=0;comic=0;labelBackgroundColor=none;strokeWidth=1;fillColor=#d5e8d4;fontFamily=Verdana;fontSize=12;strokeColor=#82b366;" parent="1" vertex="1">
          <mxGeometry x="950" y="870" width="160" height="83" as="geometry" />
        </mxCell>
        <mxCell id="UsbxNbq3lsT-JYxwhpn--105" value="+ info about sales" style="text;html=1;strokeColor=none;fillColor=none;align=left;verticalAlign=top;spacingLeft=4;spacingRight=4;whiteSpace=wrap;overflow=hidden;rotatable=0;points=[[0,0.5],[1,0.5]];portConstraint=eastwest;labelBackgroundColor=none;rounded=1;" parent="UsbxNbq3lsT-JYxwhpn--104" vertex="1">
          <mxGeometry y="26" width="160" height="26" as="geometry" />
        </mxCell>
        <mxCell id="UsbxNbq3lsT-JYxwhpn--106" value="+ info about admin time" style="text;html=1;align=left;verticalAlign=top;spacingLeft=4;spacingRight=4;whiteSpace=wrap;overflow=hidden;rotatable=0;points=[[0,0.5],[1,0.5]];portConstraint=eastwest;labelBackgroundColor=none;rounded=1;" parent="UsbxNbq3lsT-JYxwhpn--104" vertex="1">
          <mxGeometry y="52" width="160" height="26" as="geometry" />
        </mxCell>
        <mxCell id="UsbxNbq3lsT-JYxwhpn--108" style="edgeStyle=orthogonalEdgeStyle;rounded=1;orthogonalLoop=1;jettySize=auto;html=1;exitX=1;exitY=0.5;exitDx=0;exitDy=0;fillColor=#d5e8d4;strokeColor=#82b366;" parent="1" source="UsbxNbq3lsT-JYxwhpn--83" target="UsbxNbq3lsT-JYxwhpn--104" edge="1">
          <mxGeometry relative="1" as="geometry">
            <Array as="points">
              <mxPoint x="1170" y="721" />
              <mxPoint x="1170" y="840" />
              <mxPoint x="1030" y="840" />
            </Array>
          </mxGeometry>
        </mxCell>
        <mxCell id="UsbxNbq3lsT-JYxwhpn--109" value="(Table)Sales Data" style="swimlane;html=1;fontStyle=1;align=center;verticalAlign=top;childLayout=stackLayout;horizontal=1;startSize=26;horizontalStack=0;resizeParent=1;resizeLast=0;collapsible=1;marginBottom=0;swimlaneFillColor=#ffffff;rounded=1;shadow=0;comic=0;labelBackgroundColor=none;strokeWidth=1;fillColor=#d5e8d4;fontFamily=Verdana;fontSize=12;strokeColor=#82b366;" parent="1" vertex="1">
          <mxGeometry x="1275" y="870" width="260" height="120" as="geometry" />
        </mxCell>
        <mxCell id="UsbxNbq3lsT-JYxwhpn--118" value="+ class of sale(expenditures and incomes)" style="text;html=1;strokeColor=default;fillColor=none;align=left;verticalAlign=top;spacingLeft=4;spacingRight=4;whiteSpace=wrap;overflow=hidden;rotatable=0;points=[[0,0.5],[1,0.5]];portConstraint=eastwest;labelBackgroundColor=none;rounded=1;" parent="UsbxNbq3lsT-JYxwhpn--109" vertex="1">
          <mxGeometry y="26" width="260" height="26" as="geometry" />
        </mxCell>
        <mxCell id="UsbxNbq3lsT-JYxwhpn--110" value="+ date of sale&amp;nbsp;" style="text;html=1;strokeColor=default;fillColor=none;align=left;verticalAlign=top;spacingLeft=4;spacingRight=4;whiteSpace=wrap;overflow=hidden;rotatable=0;points=[[0,0.5],[1,0.5]];portConstraint=eastwest;labelBackgroundColor=none;rounded=1;" parent="UsbxNbq3lsT-JYxwhpn--109" vertex="1">
          <mxGeometry y="52" width="260" height="26" as="geometry" />
        </mxCell>
        <mxCell id="UsbxNbq3lsT-JYxwhpn--113" value="+ sale details(member or admin, count, client...)" style="text;html=1;strokeColor=default;fillColor=none;align=left;verticalAlign=top;spacingLeft=4;spacingRight=4;whiteSpace=wrap;overflow=hidden;rotatable=0;points=[[0,0.5],[1,0.5]];portConstraint=eastwest;labelBackgroundColor=none;rounded=1;" parent="UsbxNbq3lsT-JYxwhpn--109" vertex="1">
          <mxGeometry y="78" width="260" height="42" as="geometry" />
        </mxCell>
        <mxCell id="UsbxNbq3lsT-JYxwhpn--165" style="edgeStyle=orthogonalEdgeStyle;rounded=1;orthogonalLoop=1;jettySize=auto;html=1;exitX=0.5;exitY=0;exitDx=0;exitDy=0;entryX=-0.004;entryY=0.199;entryDx=0;entryDy=0;entryPerimeter=0;" parent="1" source="UsbxNbq3lsT-JYxwhpn--115" target="UsbxNbq3lsT-JYxwhpn--103" edge="1">
          <mxGeometry relative="1" as="geometry" />
        </mxCell>
        <mxCell id="UsbxNbq3lsT-JYxwhpn--115" value="(Table)List Of CashBox Data" style="swimlane;html=1;fontStyle=1;align=center;verticalAlign=top;childLayout=stackLayout;horizontal=1;startSize=26;horizontalStack=0;resizeParent=1;resizeLast=0;collapsible=1;marginBottom=0;swimlaneFillColor=#ffffff;rounded=1;shadow=0;comic=0;labelBackgroundColor=none;strokeWidth=1;fillColor=none;fontFamily=Verdana;fontSize=12;" parent="1" vertex="1">
          <mxGeometry x="1250" y="620" width="310" height="110" as="geometry" />
        </mxCell>
        <mxCell id="UsbxNbq3lsT-JYxwhpn--116" value="+ date d of cashbox" style="text;html=1;strokeColor=none;fillColor=none;align=left;verticalAlign=top;spacingLeft=4;spacingRight=4;whiteSpace=wrap;overflow=hidden;rotatable=0;points=[[0,0.5],[1,0.5]];portConstraint=eastwest;labelBackgroundColor=none;rounded=1;" parent="UsbxNbq3lsT-JYxwhpn--115" vertex="1">
          <mxGeometry y="26" width="310" height="26" as="geometry" />
        </mxCell>
        <mxCell id="UsbxNbq3lsT-JYxwhpn--117" value="+ cashbox details(member or admin ...)" style="text;html=1;strokeColor=none;fillColor=none;align=left;verticalAlign=top;spacingLeft=4;spacingRight=4;whiteSpace=wrap;overflow=hidden;rotatable=0;points=[[0,0.5],[1,0.5]];portConstraint=eastwest;labelBackgroundColor=none;rounded=1;" parent="UsbxNbq3lsT-JYxwhpn--115" vertex="1">
          <mxGeometry y="52" width="310" height="28" as="geometry" />
        </mxCell>
        <mxCell id="UsbxNbq3lsT-JYxwhpn--119" value="+ list(d) list of sales" style="text;html=1;strokeColor=#82b366;fillColor=#d5e8d4;align=left;verticalAlign=top;spacingLeft=4;spacingRight=4;whiteSpace=wrap;overflow=hidden;rotatable=0;points=[[0,0.5],[1,0.5]];portConstraint=eastwest;labelBackgroundColor=none;rounded=1;" parent="UsbxNbq3lsT-JYxwhpn--115" vertex="1">
          <mxGeometry y="80" width="310" height="30" as="geometry" />
        </mxCell>
        <mxCell id="UsbxNbq3lsT-JYxwhpn--140" style="edgeStyle=orthogonalEdgeStyle;rounded=1;orthogonalLoop=1;jettySize=auto;html=1;exitX=0.5;exitY=1;exitDx=0;exitDy=0;" parent="1" source="UsbxNbq3lsT-JYxwhpn--120" target="UsbxNbq3lsT-JYxwhpn--109" edge="1">
          <mxGeometry relative="1" as="geometry" />
        </mxCell>
        <mxCell id="UsbxNbq3lsT-JYxwhpn--141" style="edgeStyle=orthogonalEdgeStyle;rounded=1;orthogonalLoop=1;jettySize=auto;html=1;exitX=0.5;exitY=0;exitDx=0;exitDy=0;entryX=0.5;entryY=1.009;entryDx=0;entryDy=0;entryPerimeter=0;" parent="1" source="UsbxNbq3lsT-JYxwhpn--120" target="UsbxNbq3lsT-JYxwhpn--119" edge="1">
          <mxGeometry relative="1" as="geometry" />
        </mxCell>
        <mxCell id="UsbxNbq3lsT-JYxwhpn--120" value="filter(Date d)" style="rounded=1;whiteSpace=wrap;html=1;fillColor=#d5e8d4;strokeColor=#82b366;" parent="1" vertex="1">
          <mxGeometry x="1370" y="780" width="70" height="30" as="geometry" />
        </mxCell>
        <mxCell id="UsbxNbq3lsT-JYxwhpn--166" style="edgeStyle=orthogonalEdgeStyle;rounded=1;orthogonalLoop=1;jettySize=auto;html=1;exitX=0.5;exitY=0;exitDx=0;exitDy=0;entryX=0.5;entryY=1;entryDx=0;entryDy=0;" parent="1" source="UsbxNbq3lsT-JYxwhpn--129" target="UsbxNbq3lsT-JYxwhpn--102" edge="1">
          <mxGeometry relative="1" as="geometry" />
        </mxCell>
        <mxCell id="UsbxNbq3lsT-JYxwhpn--129" value="(Table)List Of Payment Data" style="swimlane;html=1;fontStyle=1;align=center;verticalAlign=top;childLayout=stackLayout;horizontal=1;startSize=26;horizontalStack=0;resizeParent=1;resizeLast=0;collapsible=1;marginBottom=0;swimlaneFillColor=#ffffff;rounded=1;shadow=0;comic=0;labelBackgroundColor=none;strokeWidth=1;fillColor=none;fontFamily=Verdana;fontSize=12;" parent="1" vertex="1">
          <mxGeometry x="1590" y="620" width="310" height="120" as="geometry" />
        </mxCell>
        <mxCell id="UsbxNbq3lsT-JYxwhpn--130" value="+ date d(month) of&amp;nbsp; payment" style="text;html=1;strokeColor=none;fillColor=none;align=left;verticalAlign=top;spacingLeft=4;spacingRight=4;whiteSpace=wrap;overflow=hidden;rotatable=0;points=[[0,0.5],[1,0.5]];portConstraint=eastwest;labelBackgroundColor=none;rounded=1;" parent="UsbxNbq3lsT-JYxwhpn--129" vertex="1">
          <mxGeometry y="26" width="310" height="26" as="geometry" />
        </mxCell>
        <mxCell id="UsbxNbq3lsT-JYxwhpn--131" value="+ payment details(member or admin,percentage of&amp;nbsp; &amp;nbsp; &amp;nbsp; &amp;nbsp; payment,count...)" style="text;html=1;strokeColor=none;fillColor=none;align=left;verticalAlign=top;spacingLeft=4;spacingRight=4;whiteSpace=wrap;overflow=hidden;rotatable=0;points=[[0,0.5],[1,0.5]];portConstraint=eastwest;labelBackgroundColor=none;rounded=1;" parent="UsbxNbq3lsT-JYxwhpn--129" vertex="1">
          <mxGeometry y="52" width="310" height="38" as="geometry" />
        </mxCell>
        <mxCell id="UsbxNbq3lsT-JYxwhpn--132" value="+ list of payments" style="text;html=1;strokeColor=#82b366;fillColor=#d5e8d4;align=left;verticalAlign=top;spacingLeft=4;spacingRight=4;whiteSpace=wrap;overflow=hidden;rotatable=0;points=[[0,0.5],[1,0.5]];portConstraint=eastwest;labelBackgroundColor=none;rounded=1;" parent="UsbxNbq3lsT-JYxwhpn--129" vertex="1">
          <mxGeometry y="90" width="310" height="30" as="geometry" />
        </mxCell>
        <mxCell id="UsbxNbq3lsT-JYxwhpn--133" value="(Table)Payment Data" style="swimlane;html=1;fontStyle=1;align=center;verticalAlign=top;childLayout=stackLayout;horizontal=1;startSize=26;horizontalStack=0;resizeParent=1;resizeLast=0;collapsible=1;marginBottom=0;swimlaneFillColor=#ffffff;rounded=1;shadow=0;comic=0;labelBackgroundColor=none;strokeWidth=1;fillColor=#d5e8d4;fontFamily=Verdana;fontSize=12;strokeColor=#82b366;" parent="1" vertex="1">
          <mxGeometry x="1590" y="850" width="310" height="90" as="geometry" />
        </mxCell>
        <mxCell id="UsbxNbq3lsT-JYxwhpn--134" value="+ date d(month) of&amp;nbsp; payment" style="text;html=1;strokeColor=default;fillColor=none;align=left;verticalAlign=top;spacingLeft=4;spacingRight=4;whiteSpace=wrap;overflow=hidden;rotatable=0;points=[[0,0.5],[1,0.5]];portConstraint=eastwest;labelBackgroundColor=none;rounded=1;" parent="UsbxNbq3lsT-JYxwhpn--133" vertex="1">
          <mxGeometry y="26" width="310" height="26" as="geometry" />
        </mxCell>
        <mxCell id="UsbxNbq3lsT-JYxwhpn--135" value="+ payment details(member or admin,percentage of&amp;nbsp; &amp;nbsp; &amp;nbsp; &amp;nbsp; payment,count...)" style="text;html=1;align=left;verticalAlign=top;spacingLeft=4;spacingRight=4;whiteSpace=wrap;overflow=hidden;rotatable=0;points=[[0,0.5],[1,0.5]];portConstraint=eastwest;labelBackgroundColor=none;rounded=1;strokeColor=default;" parent="UsbxNbq3lsT-JYxwhpn--133" vertex="1">
          <mxGeometry y="52" width="310" height="38" as="geometry" />
        </mxCell>
        <mxCell id="UsbxNbq3lsT-JYxwhpn--138" style="edgeStyle=orthogonalEdgeStyle;rounded=1;orthogonalLoop=1;jettySize=auto;html=1;exitX=0.5;exitY=1;exitDx=0;exitDy=0;entryX=0.5;entryY=0;entryDx=0;entryDy=0;fillColor=#d5e8d4;strokeColor=#82b366;endArrow=none;endFill=0;startArrow=classic;startFill=1;" parent="1" source="UsbxNbq3lsT-JYxwhpn--137" target="UsbxNbq3lsT-JYxwhpn--133" edge="1">
          <mxGeometry relative="1" as="geometry" />
        </mxCell>
        <mxCell id="UsbxNbq3lsT-JYxwhpn--139" style="edgeStyle=orthogonalEdgeStyle;rounded=1;orthogonalLoop=1;jettySize=auto;html=1;exitX=0.5;exitY=0;exitDx=0;exitDy=0;entryX=0.499;entryY=1.01;entryDx=0;entryDy=0;entryPerimeter=0;fillColor=#d5e8d4;strokeColor=#82b366;" parent="1" source="UsbxNbq3lsT-JYxwhpn--137" target="UsbxNbq3lsT-JYxwhpn--132" edge="1">
          <mxGeometry relative="1" as="geometry" />
        </mxCell>
        <mxCell id="UsbxNbq3lsT-JYxwhpn--137" value="filter(Date d)" style="rounded=1;whiteSpace=wrap;html=1;fillColor=#d5e8d4;strokeColor=#82b366;" parent="1" vertex="1">
          <mxGeometry x="1710" y="770" width="70" height="30" as="geometry" />
        </mxCell>
        <mxCell id="UsbxNbq3lsT-JYxwhpn--167" style="edgeStyle=orthogonalEdgeStyle;rounded=1;orthogonalLoop=1;jettySize=auto;html=1;exitX=0.5;exitY=0;exitDx=0;exitDy=0;entryX=1.008;entryY=0.199;entryDx=0;entryDy=0;entryPerimeter=0;" parent="1" source="UsbxNbq3lsT-JYxwhpn--142" target="UsbxNbq3lsT-JYxwhpn--103" edge="1">
          <mxGeometry relative="1" as="geometry" />
        </mxCell>
        <mxCell id="UsbxNbq3lsT-JYxwhpn--142" value="(Table)List Of Clients Data" style="swimlane;html=1;fontStyle=1;align=center;verticalAlign=top;childLayout=stackLayout;horizontal=1;startSize=26;horizontalStack=0;resizeParent=1;resizeLast=0;collapsible=1;marginBottom=0;swimlaneFillColor=#ffffff;rounded=1;shadow=0;comic=0;labelBackgroundColor=none;strokeWidth=1;fillColor=none;fontFamily=Verdana;fontSize=12;" parent="1" vertex="1">
          <mxGeometry x="1960" y="630" width="310" height="82" as="geometry" />
        </mxCell>
        <mxCell id="UsbxNbq3lsT-JYxwhpn--143" value="+ class of&amp;nbsp; client(active||none-active)" style="text;html=1;strokeColor=none;fillColor=none;align=left;verticalAlign=top;spacingLeft=4;spacingRight=4;whiteSpace=wrap;overflow=hidden;rotatable=0;points=[[0,0.5],[1,0.5]];portConstraint=eastwest;labelBackgroundColor=none;rounded=1;" parent="UsbxNbq3lsT-JYxwhpn--142" vertex="1">
          <mxGeometry y="26" width="310" height="26" as="geometry" />
        </mxCell>
        <mxCell id="UsbxNbq3lsT-JYxwhpn--145" value="+ list of&amp;nbsp; clients" style="text;html=1;strokeColor=#82b366;fillColor=#d5e8d4;align=left;verticalAlign=top;spacingLeft=4;spacingRight=4;whiteSpace=wrap;overflow=hidden;rotatable=0;points=[[0,0.5],[1,0.5]];portConstraint=eastwest;labelBackgroundColor=none;rounded=1;" parent="UsbxNbq3lsT-JYxwhpn--142" vertex="1">
          <mxGeometry y="52" width="310" height="30" as="geometry" />
        </mxCell>
        <mxCell id="UsbxNbq3lsT-JYxwhpn--150" style="edgeStyle=orthogonalEdgeStyle;rounded=1;orthogonalLoop=1;jettySize=auto;html=1;exitX=0.5;exitY=0;exitDx=0;exitDy=0;entryX=0.533;entryY=1.014;entryDx=0;entryDy=0;entryPerimeter=0;fillColor=#d5e8d4;strokeColor=#82b366;" parent="1" source="UsbxNbq3lsT-JYxwhpn--149" target="UsbxNbq3lsT-JYxwhpn--145" edge="1">
          <mxGeometry relative="1" as="geometry" />
        </mxCell>
        <mxCell id="UsbxNbq3lsT-JYxwhpn--151" style="edgeStyle=orthogonalEdgeStyle;rounded=1;orthogonalLoop=1;jettySize=auto;html=1;exitX=0.5;exitY=1;exitDx=0;exitDy=0;entryX=0;entryY=0.132;entryDx=0;entryDy=0;entryPerimeter=0;fillColor=#d5e8d4;strokeColor=#82b366;endArrow=none;endFill=0;startArrow=classic;startFill=1;" parent="1" source="UsbxNbq3lsT-JYxwhpn--149" target="78961159f06e98e8-30" edge="1">
          <mxGeometry relative="1" as="geometry">
            <Array as="points">
              <mxPoint x="2125" y="1250" />
              <mxPoint x="280" y="1250" />
              <mxPoint x="280" y="640" />
            </Array>
          </mxGeometry>
        </mxCell>
        <mxCell id="UsbxNbq3lsT-JYxwhpn--149" value="filter(Boolean a)" style="rounded=1;whiteSpace=wrap;html=1;fillColor=#d5e8d4;strokeColor=#82b366;" parent="1" vertex="1">
          <mxGeometry x="2075" y="760" width="100" height="30" as="geometry" />
        </mxCell>
        <mxCell id="UsbxNbq3lsT-JYxwhpn--168" style="edgeStyle=orthogonalEdgeStyle;rounded=1;orthogonalLoop=1;jettySize=auto;html=1;exitX=0.5;exitY=0;exitDx=0;exitDy=0;entryX=1;entryY=0.25;entryDx=0;entryDy=0;" parent="1" source="UsbxNbq3lsT-JYxwhpn--152" target="UsbxNbq3lsT-JYxwhpn--102" edge="1">
          <mxGeometry relative="1" as="geometry" />
        </mxCell>
        <mxCell id="UsbxNbq3lsT-JYxwhpn--152" value="(Table)List Of Staf" style="swimlane;html=1;fontStyle=1;align=center;verticalAlign=top;childLayout=stackLayout;horizontal=1;startSize=26;horizontalStack=0;resizeParent=1;resizeLast=0;collapsible=1;marginBottom=0;swimlaneFillColor=#ffffff;rounded=1;shadow=0;comic=0;labelBackgroundColor=none;strokeWidth=1;fillColor=none;fontFamily=Verdana;fontSize=12;" parent="1" vertex="1">
          <mxGeometry x="2340" y="630" width="310" height="82" as="geometry" />
        </mxCell>
        <mxCell id="UsbxNbq3lsT-JYxwhpn--153" value="+ class of&amp;nbsp; staf(mentor||admin)" style="text;html=1;strokeColor=none;fillColor=none;align=left;verticalAlign=top;spacingLeft=4;spacingRight=4;whiteSpace=wrap;overflow=hidden;rotatable=0;points=[[0,0.5],[1,0.5]];portConstraint=eastwest;labelBackgroundColor=none;rounded=1;" parent="UsbxNbq3lsT-JYxwhpn--152" vertex="1">
          <mxGeometry y="26" width="310" height="26" as="geometry" />
        </mxCell>
        <mxCell id="UsbxNbq3lsT-JYxwhpn--154" value="+ list of&amp;nbsp; staf" style="text;html=1;strokeColor=#82b366;fillColor=#d5e8d4;align=left;verticalAlign=top;spacingLeft=4;spacingRight=4;whiteSpace=wrap;overflow=hidden;rotatable=0;points=[[0,0.5],[1,0.5]];portConstraint=eastwest;labelBackgroundColor=none;rounded=1;" parent="UsbxNbq3lsT-JYxwhpn--152" vertex="1">
          <mxGeometry y="52" width="310" height="30" as="geometry" />
        </mxCell>
        <mxCell id="UsbxNbq3lsT-JYxwhpn--157" style="edgeStyle=orthogonalEdgeStyle;rounded=1;orthogonalLoop=1;jettySize=auto;html=1;exitX=0.5;exitY=0;exitDx=0;exitDy=0;entryX=0.45;entryY=1.02;entryDx=0;entryDy=0;entryPerimeter=0;" parent="1" source="UsbxNbq3lsT-JYxwhpn--155" target="UsbxNbq3lsT-JYxwhpn--154" edge="1">
          <mxGeometry relative="1" as="geometry" />
        </mxCell>
        <mxCell id="UsbxNbq3lsT-JYxwhpn--162" style="edgeStyle=orthogonalEdgeStyle;rounded=1;orthogonalLoop=1;jettySize=auto;html=1;exitX=0.5;exitY=1;exitDx=0;exitDy=0;entryX=1;entryY=0.5;entryDx=0;entryDy=0;endArrow=halfCircle;endFill=0;startArrow=none;startFill=0;fillColor=#d5e8d4;gradientColor=#97d077;strokeColor=#82b366;" parent="1" source="UsbxNbq3lsT-JYxwhpn--155" target="UsbxNbq3lsT-JYxwhpn--159" edge="1">
          <mxGeometry relative="1" as="geometry" />
        </mxCell>
        <mxCell id="UsbxNbq3lsT-JYxwhpn--155" value="filter(Class s)" style="rounded=1;whiteSpace=wrap;html=1;fillColor=#d5e8d4;strokeColor=#82b366;" parent="1" vertex="1">
          <mxGeometry x="2430" y="780" width="100" height="30" as="geometry" />
        </mxCell>
        <mxCell id="UsbxNbq3lsT-JYxwhpn--160" style="edgeStyle=orthogonalEdgeStyle;rounded=1;orthogonalLoop=1;jettySize=auto;html=1;exitX=0.5;exitY=0;exitDx=0;exitDy=0;fillColor=#f8cecc;gradientColor=#ea6b66;strokeColor=#b85450;endArrow=none;endFill=0;" parent="1" source="UsbxNbq3lsT-JYxwhpn--159" edge="1">
          <mxGeometry relative="1" as="geometry">
            <mxPoint x="1030" y="830" as="targetPoint" />
            <Array as="points">
              <mxPoint x="1250" y="1300" />
              <mxPoint x="1250" y="860" />
              <mxPoint x="1030" y="860" />
            </Array>
          </mxGeometry>
        </mxCell>
        <mxCell id="UsbxNbq3lsT-JYxwhpn--161" style="edgeStyle=orthogonalEdgeStyle;rounded=1;orthogonalLoop=1;jettySize=auto;html=1;exitX=0;exitY=0.5;exitDx=0;exitDy=0;entryX=0.5;entryY=1;entryDx=0;entryDy=0;fillColor=#f8cecc;gradientColor=#ea6b66;strokeColor=#b85450;startArrow=classic;startFill=1;endArrow=none;endFill=0;" parent="1" source="UsbxNbq3lsT-JYxwhpn--159" target="78961159f06e98e8-43" edge="1">
          <mxGeometry relative="1" as="geometry">
            <Array as="points">
              <mxPoint x="550" y="1360" />
              <mxPoint x="550" y="840" />
              <mxPoint x="695" y="840" />
            </Array>
          </mxGeometry>
        </mxCell>
        <mxCell id="UsbxNbq3lsT-JYxwhpn--159" value="List get staf()" style="rounded=1;whiteSpace=wrap;html=1;fillColor=#f8cecc;gradientColor=#ea6b66;strokeColor=#b85450;" parent="1" vertex="1">
          <mxGeometry x="930" y="1330" width="120" height="60" as="geometry" />
        </mxCell>
        <mxCell id="RQXcmn4yV_KDOGbdoK8P-109" style="edgeStyle=orthogonalEdgeStyle;rounded=1;orthogonalLoop=1;jettySize=auto;html=1;exitX=0.5;exitY=0;exitDx=0;exitDy=0;fillColor=#dae8fc;strokeColor=#6c8ebf;" edge="1" parent="1" source="RQXcmn4yV_KDOGbdoK8P-1" target="RQXcmn4yV_KDOGbdoK8P-69">
          <mxGeometry relative="1" as="geometry" />
        </mxCell>
        <mxCell id="RQXcmn4yV_KDOGbdoK8P-111" style="edgeStyle=orthogonalEdgeStyle;rounded=1;orthogonalLoop=1;jettySize=auto;html=1;exitX=-0.009;exitY=0.877;exitDx=0;exitDy=0;entryX=0;entryY=0.5;entryDx=0;entryDy=0;fillColor=#dae8fc;strokeColor=#6c8ebf;exitPerimeter=0;" edge="1" parent="1">
          <mxGeometry relative="1" as="geometry">
            <mxPoint x="4698.389999999999" y="1512.1599999999999" as="sourcePoint" />
            <mxPoint x="3609.9199999999996" y="770" as="targetPoint" />
            <Array as="points">
              <mxPoint x="4698.92" y="1510" />
              <mxPoint x="3559.9199999999996" y="1510" />
              <mxPoint x="3559.9199999999996" y="770" />
            </Array>
          </mxGeometry>
        </mxCell>
        <mxCell id="RQXcmn4yV_KDOGbdoK8P-114" style="edgeStyle=orthogonalEdgeStyle;rounded=1;orthogonalLoop=1;jettySize=auto;html=1;exitX=0;exitY=0.5;exitDx=0;exitDy=0;entryX=0.999;entryY=0.07;entryDx=0;entryDy=0;entryPerimeter=0;fillColor=#dae8fc;strokeColor=#6c8ebf;" edge="1" parent="1" source="RQXcmn4yV_KDOGbdoK8P-1" target="RQXcmn4yV_KDOGbdoK8P-47">
          <mxGeometry relative="1" as="geometry">
            <Array as="points">
              <mxPoint x="4528" y="1500" />
              <mxPoint x="4528" y="774" />
            </Array>
          </mxGeometry>
        </mxCell>
        <mxCell id="RQXcmn4yV_KDOGbdoK8P-1" value="&lt;div style=&quot;&quot;&gt;&lt;font style=&quot;font-size: 22px;&quot;&gt;sales registration&lt;/font&gt;&lt;br&gt;&lt;/div&gt;" style="text;html=1;fillColor=#CCE5FF;align=right;verticalAlign=middle;whiteSpace=wrap;rounded=1;strokeColor=#36393d;" vertex="1" parent="1">
          <mxGeometry x="4698.43" y="1460" width="170" height="80" as="geometry" />
        </mxCell>
        <mxCell id="RQXcmn4yV_KDOGbdoK8P-3" style="edgeStyle=orthogonalEdgeStyle;rounded=1;orthogonalLoop=1;jettySize=auto;html=1;exitX=0.5;exitY=0;exitDx=0;exitDy=0;" edge="1" parent="1" source="RQXcmn4yV_KDOGbdoK8P-4">
          <mxGeometry relative="1" as="geometry">
            <mxPoint x="3693.43" y="720" as="targetPoint" />
          </mxGeometry>
        </mxCell>
        <mxCell id="RQXcmn4yV_KDOGbdoK8P-4" value="(Table)Data of Client&amp;nbsp;&amp;nbsp;" style="swimlane;html=1;fontStyle=1;align=center;verticalAlign=top;childLayout=stackLayout;horizontal=1;startSize=26;horizontalStack=0;resizeParent=1;resizeLast=0;collapsible=1;marginBottom=0;swimlaneFillColor=#ffffff;rounded=1;shadow=0;comic=0;labelBackgroundColor=none;strokeWidth=1;fillColor=none;fontFamily=Verdana;fontSize=12;" vertex="1" parent="1">
          <mxGeometry x="3608.43" y="750" width="170" height="152" as="geometry">
            <mxRectangle x="320" y="370" width="190" height="30" as="alternateBounds" />
          </mxGeometry>
        </mxCell>
        <mxCell id="RQXcmn4yV_KDOGbdoK8P-5" value="+ personal data" style="text;html=1;strokeColor=none;fillColor=none;align=left;verticalAlign=top;spacingLeft=4;spacingRight=4;whiteSpace=wrap;overflow=hidden;rotatable=0;points=[[0,0.5],[1,0.5]];portConstraint=eastwest;labelBackgroundColor=none;rounded=1;" vertex="1" parent="RQXcmn4yV_KDOGbdoK8P-4">
          <mxGeometry y="26" width="170" height="24" as="geometry" />
        </mxCell>
        <mxCell id="RQXcmn4yV_KDOGbdoK8P-6" value="+ class (active||no)" style="text;html=1;strokeColor=none;fillColor=none;align=left;verticalAlign=top;spacingLeft=4;spacingRight=4;whiteSpace=wrap;overflow=hidden;rotatable=0;points=[[0,0.5],[1,0.5]];portConstraint=eastwest;labelBackgroundColor=none;rounded=1;" vertex="1" parent="RQXcmn4yV_KDOGbdoK8P-4">
          <mxGeometry y="50" width="170" height="24" as="geometry" />
        </mxCell>
        <mxCell id="RQXcmn4yV_KDOGbdoK8P-7" value="+&amp;nbsp;mentor(if no == none)" style="text;html=1;strokeColor=#b85450;fillColor=#f8cecc;align=left;verticalAlign=top;spacingLeft=4;spacingRight=4;whiteSpace=wrap;overflow=hidden;rotatable=0;points=[[0,0.5],[1,0.5]];portConstraint=eastwest;labelBackgroundColor=none;rounded=1;" vertex="1" parent="RQXcmn4yV_KDOGbdoK8P-4">
          <mxGeometry y="74" width="170" height="26" as="geometry" />
        </mxCell>
        <mxCell id="RQXcmn4yV_KDOGbdoK8P-8" value="+ subscription info&amp;nbsp;&amp;nbsp;" style="text;html=1;strokeColor=none;fillColor=none;align=left;verticalAlign=top;spacingLeft=4;spacingRight=4;whiteSpace=wrap;overflow=hidden;rotatable=0;points=[[0,0.5],[1,0.5]];portConstraint=eastwest;labelBackgroundColor=none;rounded=1;" vertex="1" parent="RQXcmn4yV_KDOGbdoK8P-4">
          <mxGeometry y="100" width="170" height="26" as="geometry" />
        </mxCell>
        <mxCell id="RQXcmn4yV_KDOGbdoK8P-9" value="+ history" style="text;html=1;strokeColor=#82b366;fillColor=#d5e8d4;align=left;verticalAlign=top;spacingLeft=4;spacingRight=4;whiteSpace=wrap;overflow=hidden;rotatable=0;points=[[0,0.5],[1,0.5]];portConstraint=eastwest;labelBackgroundColor=none;rounded=1;" vertex="1" parent="RQXcmn4yV_KDOGbdoK8P-4">
          <mxGeometry y="126" width="170" height="26" as="geometry" />
        </mxCell>
        <mxCell id="RQXcmn4yV_KDOGbdoK8P-10" value="(Table)Data of Mentor(trainer)" style="swimlane;html=1;fontStyle=1;align=center;verticalAlign=top;childLayout=stackLayout;horizontal=1;startSize=26;horizontalStack=0;resizeParent=1;resizeLast=0;collapsible=1;marginBottom=0;swimlaneFillColor=#ffffff;rounded=1;shadow=0;comic=0;labelBackgroundColor=none;strokeWidth=1;fillColor=none;fontFamily=Verdana;fontSize=12;" vertex="1" parent="1">
          <mxGeometry x="3878.43" y="750" width="250" height="197" as="geometry" />
        </mxCell>
        <mxCell id="RQXcmn4yV_KDOGbdoK8P-11" value="+ personal data&amp;nbsp;&lt;br&gt;" style="text;html=1;strokeColor=none;fillColor=none;align=left;verticalAlign=top;spacingLeft=4;spacingRight=4;whiteSpace=wrap;overflow=hidden;rotatable=0;points=[[0,0.5],[1,0.5]];portConstraint=eastwest;labelBackgroundColor=none;rounded=1;" vertex="1" parent="RQXcmn4yV_KDOGbdoK8P-10">
          <mxGeometry y="26" width="250" height="26" as="geometry" />
        </mxCell>
        <mxCell id="RQXcmn4yV_KDOGbdoK8P-12" value="+ number of clients" style="text;html=1;strokeColor=#b85450;fillColor=#f8cecc;align=left;verticalAlign=top;spacingLeft=4;spacingRight=4;whiteSpace=wrap;overflow=hidden;rotatable=0;points=[[0,0.5],[1,0.5]];portConstraint=eastwest;labelBackgroundColor=none;rounded=1;" vertex="1" parent="RQXcmn4yV_KDOGbdoK8P-10">
          <mxGeometry y="52" width="250" height="26" as="geometry" />
        </mxCell>
        <mxCell id="RQXcmn4yV_KDOGbdoK8P-13" value="+ payment" style="text;html=1;strokeColor=#9673a6;fillColor=#e1d5e7;align=left;verticalAlign=top;spacingLeft=4;spacingRight=4;whiteSpace=wrap;overflow=hidden;rotatable=0;points=[[0,0.5],[1,0.5]];portConstraint=eastwest;labelBackgroundColor=none;rounded=1;" vertex="1" parent="RQXcmn4yV_KDOGbdoK8P-10">
          <mxGeometry y="78" width="250" height="26" as="geometry" />
        </mxCell>
        <mxCell id="RQXcmn4yV_KDOGbdoK8P-14" value="+ history" style="text;html=1;strokeColor=#82b366;fillColor=#d5e8d4;align=left;verticalAlign=top;spacingLeft=4;spacingRight=4;whiteSpace=wrap;overflow=hidden;rotatable=0;points=[[0,0.5],[1,0.5]];portConstraint=eastwest;labelBackgroundColor=none;rounded=1;" vertex="1" parent="RQXcmn4yV_KDOGbdoK8P-10">
          <mxGeometry y="104" width="250" height="26" as="geometry" />
        </mxCell>
        <mxCell id="RQXcmn4yV_KDOGbdoK8P-15" value="(Table)Client history" style="swimlane;html=1;fontStyle=1;align=center;verticalAlign=top;childLayout=stackLayout;horizontal=1;startSize=26;horizontalStack=0;resizeParent=1;resizeLast=0;collapsible=1;marginBottom=0;swimlaneFillColor=#ffffff;rounded=1;shadow=0;comic=0;labelBackgroundColor=none;strokeWidth=1;fillColor=#d5e8d4;fontFamily=Verdana;fontSize=12;strokeColor=#82b366;" vertex="1" parent="1">
          <mxGeometry x="3608.43" y="920" width="160" height="110" as="geometry" />
        </mxCell>
        <mxCell id="RQXcmn4yV_KDOGbdoK8P-16" value="+ info about subscription&amp;nbsp; &amp;nbsp; &amp;nbsp; &amp;nbsp; &amp;nbsp;buys" style="text;html=1;strokeColor=none;fillColor=none;align=left;verticalAlign=top;spacingLeft=4;spacingRight=4;whiteSpace=wrap;overflow=hidden;rotatable=0;points=[[0,0.5],[1,0.5]];portConstraint=eastwest;labelBackgroundColor=none;rounded=1;" vertex="1" parent="RQXcmn4yV_KDOGbdoK8P-15">
          <mxGeometry y="26" width="160" height="34" as="geometry" />
        </mxCell>
        <mxCell id="RQXcmn4yV_KDOGbdoK8P-17" value="+ info about extra buys" style="text;html=1;strokeColor=none;fillColor=none;align=left;verticalAlign=top;spacingLeft=4;spacingRight=4;whiteSpace=wrap;overflow=hidden;rotatable=0;points=[[0,0.5],[1,0.5]];portConstraint=eastwest;labelBackgroundColor=none;rounded=1;" vertex="1" parent="RQXcmn4yV_KDOGbdoK8P-15">
          <mxGeometry y="60" width="160" height="26" as="geometry" />
        </mxCell>
        <mxCell id="RQXcmn4yV_KDOGbdoK8P-18" value="+ info about&amp;nbsp;visiting" style="text;html=1;strokeColor=none;fillColor=none;align=left;verticalAlign=top;spacingLeft=4;spacingRight=4;whiteSpace=wrap;overflow=hidden;rotatable=0;points=[[0,0.5],[1,0.5]];portConstraint=eastwest;labelBackgroundColor=none;rounded=1;" vertex="1" parent="RQXcmn4yV_KDOGbdoK8P-15">
          <mxGeometry y="86" width="160" height="24" as="geometry" />
        </mxCell>
        <mxCell id="RQXcmn4yV_KDOGbdoK8P-19" style="edgeStyle=orthogonalEdgeStyle;rounded=1;orthogonalLoop=1;jettySize=auto;html=1;exitX=1;exitY=0.5;exitDx=0;exitDy=0;entryX=-0.006;entryY=0.041;entryDx=0;entryDy=0;entryPerimeter=0;labelBackgroundColor=none;fontColor=default;fillColor=#f8cecc;strokeColor=#b85450;" edge="1" parent="1" source="RQXcmn4yV_KDOGbdoK8P-7" target="RQXcmn4yV_KDOGbdoK8P-10">
          <mxGeometry relative="1" as="geometry" />
        </mxCell>
        <mxCell id="RQXcmn4yV_KDOGbdoK8P-20" style="edgeStyle=orthogonalEdgeStyle;rounded=1;orthogonalLoop=1;jettySize=auto;html=1;exitX=1;exitY=0.5;exitDx=0;exitDy=0;entryX=0.5;entryY=0;entryDx=0;entryDy=0;endArrow=none;endFill=0;startArrow=classic;startFill=1;fillColor=#d5e8d4;strokeColor=#82b366;" edge="1" parent="1" source="RQXcmn4yV_KDOGbdoK8P-9" target="RQXcmn4yV_KDOGbdoK8P-15">
          <mxGeometry relative="1" as="geometry" />
        </mxCell>
        <mxCell id="RQXcmn4yV_KDOGbdoK8P-21" value="(Table)Mentor history" style="swimlane;html=1;fontStyle=1;align=center;verticalAlign=top;childLayout=stackLayout;horizontal=1;startSize=26;horizontalStack=0;resizeParent=1;resizeLast=0;collapsible=1;marginBottom=0;swimlaneFillColor=#ffffff;rounded=1;shadow=0;comic=0;labelBackgroundColor=none;strokeWidth=1;fillColor=#d5e8d4;fontFamily=Verdana;fontSize=12;strokeColor=#82b366;" vertex="1" parent="1">
          <mxGeometry x="3923.43" y="977" width="160" height="129" as="geometry" />
        </mxCell>
        <mxCell id="RQXcmn4yV_KDOGbdoK8P-22" value="+ info about sales" style="text;html=1;strokeColor=none;fillColor=none;align=left;verticalAlign=top;spacingLeft=4;spacingRight=4;whiteSpace=wrap;overflow=hidden;rotatable=0;points=[[0,0.5],[1,0.5]];portConstraint=eastwest;labelBackgroundColor=none;rounded=1;" vertex="1" parent="RQXcmn4yV_KDOGbdoK8P-21">
          <mxGeometry y="26" width="160" height="26" as="geometry" />
        </mxCell>
        <mxCell id="RQXcmn4yV_KDOGbdoK8P-23" value="+ info about admin time" style="text;html=1;strokeColor=#6c8ebf;fillColor=#dae8fc;align=left;verticalAlign=top;spacingLeft=4;spacingRight=4;whiteSpace=wrap;overflow=hidden;rotatable=0;points=[[0,0.5],[1,0.5]];portConstraint=eastwest;labelBackgroundColor=none;rounded=1;" vertex="1" parent="RQXcmn4yV_KDOGbdoK8P-21">
          <mxGeometry y="52" width="160" height="26" as="geometry" />
        </mxCell>
        <mxCell id="RQXcmn4yV_KDOGbdoK8P-24" value="+ info count clients( in the&amp;nbsp; &amp;nbsp; &amp;nbsp; &amp;nbsp;past)" style="text;html=1;strokeColor=none;fillColor=none;align=left;verticalAlign=top;spacingLeft=4;spacingRight=4;whiteSpace=wrap;overflow=hidden;rotatable=0;points=[[0,0.5],[1,0.5]];portConstraint=eastwest;labelBackgroundColor=none;rounded=1;" vertex="1" parent="RQXcmn4yV_KDOGbdoK8P-21">
          <mxGeometry y="78" width="160" height="42" as="geometry" />
        </mxCell>
        <mxCell id="RQXcmn4yV_KDOGbdoK8P-25" style="edgeStyle=orthogonalEdgeStyle;rounded=1;orthogonalLoop=1;jettySize=auto;html=1;exitX=1;exitY=0.5;exitDx=0;exitDy=0;entryX=0.5;entryY=0;entryDx=0;entryDy=0;endArrow=none;endFill=0;startArrow=classic;startFill=1;fillColor=#d5e8d4;strokeColor=#82b366;" edge="1" parent="1" source="RQXcmn4yV_KDOGbdoK8P-14" target="RQXcmn4yV_KDOGbdoK8P-21">
          <mxGeometry relative="1" as="geometry">
            <Array as="points">
              <mxPoint x="4168.43" y="867" />
              <mxPoint x="4168.43" y="960" />
              <mxPoint x="4003.43" y="960" />
            </Array>
          </mxGeometry>
        </mxCell>
        <mxCell id="RQXcmn4yV_KDOGbdoK8P-26" style="edgeStyle=orthogonalEdgeStyle;rounded=1;orthogonalLoop=1;jettySize=auto;html=1;entryX=1.006;entryY=0.641;entryDx=0;entryDy=0;entryPerimeter=0;startArrow=none;startFill=0;endArrow=none;endFill=0;fillColor=#f8cecc;strokeColor=#b85450;" edge="1" parent="1" target="RQXcmn4yV_KDOGbdoK8P-7">
          <mxGeometry relative="1" as="geometry">
            <mxPoint x="3838.43" y="837" as="sourcePoint" />
            <Array as="points">
              <mxPoint x="3778.43" y="844" />
              <mxPoint x="3778.43" y="817" />
            </Array>
          </mxGeometry>
        </mxCell>
        <mxCell id="RQXcmn4yV_KDOGbdoK8P-27" style="edgeStyle=orthogonalEdgeStyle;rounded=1;orthogonalLoop=1;jettySize=auto;html=1;exitX=0;exitY=0.5;exitDx=0;exitDy=0;endArrow=none;endFill=0;startArrow=classic;startFill=1;fillColor=#f8cecc;strokeColor=#b85450;" edge="1" parent="1" source="RQXcmn4yV_KDOGbdoK8P-12">
          <mxGeometry relative="1" as="geometry">
            <mxPoint x="3838.43" y="837" as="targetPoint" />
          </mxGeometry>
        </mxCell>
        <mxCell id="RQXcmn4yV_KDOGbdoK8P-28" style="edgeStyle=orthogonalEdgeStyle;rounded=1;orthogonalLoop=1;jettySize=auto;html=1;exitX=0;exitY=0.5;exitDx=0;exitDy=0;entryX=0.5;entryY=0;entryDx=0;entryDy=0;startArrow=none;startFill=0;endArrow=none;endFill=0;" edge="1" parent="1" source="RQXcmn4yV_KDOGbdoK8P-30" target="RQXcmn4yV_KDOGbdoK8P-41">
          <mxGeometry relative="1" as="geometry" />
        </mxCell>
        <mxCell id="RQXcmn4yV_KDOGbdoK8P-29" style="edgeStyle=orthogonalEdgeStyle;rounded=1;orthogonalLoop=1;jettySize=auto;html=1;exitX=1;exitY=0.5;exitDx=0;exitDy=0;entryX=0.5;entryY=0;entryDx=0;entryDy=0;endArrow=none;endFill=0;" edge="1" parent="1" source="RQXcmn4yV_KDOGbdoK8P-30" target="RQXcmn4yV_KDOGbdoK8P-63">
          <mxGeometry relative="1" as="geometry" />
        </mxCell>
        <mxCell id="RQXcmn4yV_KDOGbdoK8P-30" value="&lt;font style=&quot;font-size: 33px;&quot;&gt;&lt;b&gt;The Data&lt;/b&gt;&lt;/font&gt;" style="text;html=1;fillColor=#CCE5FF;align=center;verticalAlign=middle;whiteSpace=wrap;rounded=1;strokeColor=#36393d;" vertex="1" parent="1">
          <mxGeometry x="4408.43" y="530" width="170" height="50" as="geometry" />
        </mxCell>
        <mxCell id="RQXcmn4yV_KDOGbdoK8P-31" value="(Table)Mentor - Data of&amp;nbsp;payment" style="swimlane;html=1;fontStyle=1;align=center;verticalAlign=top;childLayout=stackLayout;horizontal=1;startSize=26;horizontalStack=0;resizeParent=1;resizeLast=0;collapsible=1;marginBottom=0;swimlaneFillColor=#ffffff;rounded=1;shadow=0;comic=0;labelBackgroundColor=none;strokeWidth=1;fontFamily=Verdana;fontSize=12;fillColor=#e1d5e7;strokeColor=#9673a6;" vertex="1" parent="1">
          <mxGeometry x="3878.43" y="1130" width="260" height="197" as="geometry" />
        </mxCell>
        <mxCell id="RQXcmn4yV_KDOGbdoK8P-32" style="edgeStyle=orthogonalEdgeStyle;rounded=1;orthogonalLoop=1;jettySize=auto;html=1;exitX=1;exitY=0.5;exitDx=0;exitDy=0;entryX=1;entryY=0.5;entryDx=0;entryDy=0;" edge="1" parent="RQXcmn4yV_KDOGbdoK8P-31" source="RQXcmn4yV_KDOGbdoK8P-33" target="RQXcmn4yV_KDOGbdoK8P-38">
          <mxGeometry relative="1" as="geometry" />
        </mxCell>
        <mxCell id="RQXcmn4yV_KDOGbdoK8P-33" value="+ admin time bonus" style="text;html=1;strokeColor=none;fillColor=none;align=left;verticalAlign=top;spacingLeft=4;spacingRight=4;whiteSpace=wrap;overflow=hidden;rotatable=0;points=[[0,0.5],[1,0.5]];portConstraint=eastwest;labelBackgroundColor=none;rounded=1;" vertex="1" parent="RQXcmn4yV_KDOGbdoK8P-31">
          <mxGeometry y="26" width="260" height="26" as="geometry" />
        </mxCell>
        <mxCell id="RQXcmn4yV_KDOGbdoK8P-34" value="+ percentage of payment(out of total income)" style="text;html=1;strokeColor=none;fillColor=none;align=left;verticalAlign=top;spacingLeft=4;spacingRight=4;whiteSpace=wrap;overflow=hidden;rotatable=0;points=[[0,0.5],[1,0.5]];portConstraint=eastwest;labelBackgroundColor=none;rounded=1;" vertex="1" parent="RQXcmn4yV_KDOGbdoK8P-31">
          <mxGeometry y="52" width="260" height="26" as="geometry" />
        </mxCell>
        <mxCell id="RQXcmn4yV_KDOGbdoK8P-35" style="edgeStyle=orthogonalEdgeStyle;rounded=1;orthogonalLoop=1;jettySize=auto;html=1;exitX=0;exitY=0.5;exitDx=0;exitDy=0;entryX=0;entryY=0.5;entryDx=0;entryDy=0;" edge="1" parent="RQXcmn4yV_KDOGbdoK8P-31" source="RQXcmn4yV_KDOGbdoK8P-36" target="RQXcmn4yV_KDOGbdoK8P-38">
          <mxGeometry relative="1" as="geometry">
            <Array as="points">
              <mxPoint x="-10" y="91" />
              <mxPoint x="-10" y="125" />
            </Array>
          </mxGeometry>
        </mxCell>
        <mxCell id="RQXcmn4yV_KDOGbdoK8P-36" value="+ clients number bonus" style="text;html=1;strokeColor=#b85450;fillColor=#f8cecc;align=left;verticalAlign=top;spacingLeft=4;spacingRight=4;whiteSpace=wrap;overflow=hidden;rotatable=0;points=[[0,0.5],[1,0.5]];portConstraint=eastwest;labelBackgroundColor=none;rounded=1;" vertex="1" parent="RQXcmn4yV_KDOGbdoK8P-31">
          <mxGeometry y="78" width="260" height="26" as="geometry" />
        </mxCell>
        <mxCell id="RQXcmn4yV_KDOGbdoK8P-37" value="" style="line;html=1;strokeWidth=1;fillColor=none;align=left;verticalAlign=middle;spacingTop=-1;spacingLeft=3;spacingRight=3;rotatable=0;labelPosition=right;points=[];portConstraint=eastwest;rounded=1;" vertex="1" parent="RQXcmn4yV_KDOGbdoK8P-31">
          <mxGeometry y="104" width="260" height="8" as="geometry" />
        </mxCell>
        <mxCell id="RQXcmn4yV_KDOGbdoK8P-38" value="+ get payment(): result payment" style="text;html=1;strokeColor=#9673a6;fillColor=#e1d5e7;align=left;verticalAlign=top;spacingLeft=4;spacingRight=4;whiteSpace=wrap;overflow=hidden;rotatable=0;points=[[0,0.5],[1,0.5]];portConstraint=eastwest;labelBackgroundColor=none;rounded=1;" vertex="1" parent="RQXcmn4yV_KDOGbdoK8P-31">
          <mxGeometry y="112" width="260" height="26" as="geometry" />
        </mxCell>
        <mxCell id="RQXcmn4yV_KDOGbdoK8P-39" style="edgeStyle=orthogonalEdgeStyle;rounded=1;orthogonalLoop=1;jettySize=auto;html=1;entryX=1;entryY=0.5;entryDx=0;entryDy=0;endArrow=halfCircle;endFill=0;fillColor=#e1d5e7;strokeColor=#9673a6;" edge="1" parent="1" target="RQXcmn4yV_KDOGbdoK8P-38">
          <mxGeometry relative="1" as="geometry">
            <mxPoint x="4178.43" y="880" as="sourcePoint" />
          </mxGeometry>
        </mxCell>
        <mxCell id="RQXcmn4yV_KDOGbdoK8P-40" style="edgeStyle=orthogonalEdgeStyle;rounded=1;orthogonalLoop=1;jettySize=auto;html=1;exitX=1;exitY=0.5;exitDx=0;exitDy=0;endArrow=none;endFill=0;startArrow=classic;startFill=1;fillColor=#e1d5e7;strokeColor=#9673a6;" edge="1" parent="1" source="RQXcmn4yV_KDOGbdoK8P-13">
          <mxGeometry relative="1" as="geometry">
            <mxPoint x="4178.43" y="880" as="targetPoint" />
          </mxGeometry>
        </mxCell>
        <mxCell id="RQXcmn4yV_KDOGbdoK8P-41" value="(Table)List of Clients&amp;nbsp;&amp;nbsp;" style="swimlane;html=1;fontStyle=1;align=center;verticalAlign=top;childLayout=stackLayout;horizontal=1;startSize=26;horizontalStack=0;resizeParent=1;resizeLast=0;collapsible=1;marginBottom=0;swimlaneFillColor=#ffffff;rounded=1;shadow=0;comic=0;labelBackgroundColor=none;strokeWidth=1;fillColor=none;fontFamily=Verdana;fontSize=12;" vertex="1" parent="1">
          <mxGeometry x="3593.43" y="660" width="190" height="60" as="geometry">
            <mxRectangle x="320" y="370" width="190" height="30" as="alternateBounds" />
          </mxGeometry>
        </mxCell>
        <mxCell id="RQXcmn4yV_KDOGbdoK8P-42" value="+ (Obj)Client" style="text;html=1;strokeColor=none;fillColor=none;align=left;verticalAlign=top;spacingLeft=4;spacingRight=4;whiteSpace=wrap;overflow=hidden;rotatable=0;points=[[0,0.5],[1,0.5]];portConstraint=eastwest;labelBackgroundColor=none;rounded=1;" vertex="1" parent="RQXcmn4yV_KDOGbdoK8P-41">
          <mxGeometry y="26" width="190" height="24" as="geometry" />
        </mxCell>
        <mxCell id="RQXcmn4yV_KDOGbdoK8P-43" style="edgeStyle=orthogonalEdgeStyle;rounded=1;orthogonalLoop=1;jettySize=auto;html=1;exitX=0.5;exitY=1;exitDx=0;exitDy=0;endArrow=none;endFill=0;startArrow=classic;startFill=1;" edge="1" parent="1" source="RQXcmn4yV_KDOGbdoK8P-45" target="RQXcmn4yV_KDOGbdoK8P-10">
          <mxGeometry relative="1" as="geometry" />
        </mxCell>
        <mxCell id="RQXcmn4yV_KDOGbdoK8P-44" style="edgeStyle=orthogonalEdgeStyle;rounded=1;orthogonalLoop=1;jettySize=auto;html=1;exitX=0.5;exitY=0;exitDx=0;exitDy=0;entryX=0.5;entryY=1;entryDx=0;entryDy=0;endArrow=none;endFill=0;" edge="1" parent="1" source="RQXcmn4yV_KDOGbdoK8P-45" target="RQXcmn4yV_KDOGbdoK8P-30">
          <mxGeometry relative="1" as="geometry" />
        </mxCell>
        <mxCell id="RQXcmn4yV_KDOGbdoK8P-45" value="(Table)List of Mentors&amp;nbsp;&amp;nbsp;" style="swimlane;html=1;fontStyle=1;align=center;verticalAlign=top;childLayout=stackLayout;horizontal=1;startSize=26;horizontalStack=0;resizeParent=1;resizeLast=0;collapsible=1;marginBottom=0;swimlaneFillColor=#ffffff;rounded=1;shadow=0;comic=0;labelBackgroundColor=none;strokeWidth=1;fillColor=none;fontFamily=Verdana;fontSize=12;" vertex="1" parent="1">
          <mxGeometry x="3910.93" y="660" width="185" height="60" as="geometry">
            <mxRectangle x="320" y="370" width="190" height="30" as="alternateBounds" />
          </mxGeometry>
        </mxCell>
        <mxCell id="RQXcmn4yV_KDOGbdoK8P-46" value="+ (Obj) mentor(trainer) or admin" style="text;html=1;strokeColor=none;fillColor=none;align=left;verticalAlign=top;spacingLeft=4;spacingRight=4;whiteSpace=wrap;overflow=hidden;rotatable=0;points=[[0,0.5],[1,0.5]];portConstraint=eastwest;labelBackgroundColor=none;rounded=1;" vertex="1" parent="RQXcmn4yV_KDOGbdoK8P-45">
          <mxGeometry y="26" width="185" height="24" as="geometry" />
        </mxCell>
        <mxCell id="RQXcmn4yV_KDOGbdoK8P-47" value="(Table)Data of Admin" style="swimlane;html=1;fontStyle=1;align=center;verticalAlign=top;childLayout=stackLayout;horizontal=1;startSize=26;horizontalStack=0;resizeParent=1;resizeLast=0;collapsible=1;marginBottom=0;swimlaneFillColor=#ffffff;rounded=1;shadow=0;comic=0;labelBackgroundColor=none;strokeWidth=1;fillColor=none;fontFamily=Verdana;fontSize=12;" vertex="1" parent="1">
          <mxGeometry x="4208.43" y="760" width="250" height="197" as="geometry" />
        </mxCell>
        <mxCell id="RQXcmn4yV_KDOGbdoK8P-48" value="+ personal data&amp;nbsp;&lt;br&gt;" style="text;html=1;strokeColor=none;fillColor=none;align=left;verticalAlign=top;spacingLeft=4;spacingRight=4;whiteSpace=wrap;overflow=hidden;rotatable=0;points=[[0,0.5],[1,0.5]];portConstraint=eastwest;labelBackgroundColor=none;rounded=1;" vertex="1" parent="RQXcmn4yV_KDOGbdoK8P-47">
          <mxGeometry y="26" width="250" height="26" as="geometry" />
        </mxCell>
        <mxCell id="RQXcmn4yV_KDOGbdoK8P-49" value="+ payment" style="text;html=1;strokeColor=#9673a6;fillColor=#e1d5e7;align=left;verticalAlign=top;spacingLeft=4;spacingRight=4;whiteSpace=wrap;overflow=hidden;rotatable=0;points=[[0,0.5],[1,0.5]];portConstraint=eastwest;labelBackgroundColor=none;rounded=1;" vertex="1" parent="RQXcmn4yV_KDOGbdoK8P-47">
          <mxGeometry y="52" width="250" height="26" as="geometry" />
        </mxCell>
        <mxCell id="RQXcmn4yV_KDOGbdoK8P-50" value="+ history" style="text;html=1;strokeColor=#82b366;fillColor=#d5e8d4;align=left;verticalAlign=top;spacingLeft=4;spacingRight=4;whiteSpace=wrap;overflow=hidden;rotatable=0;points=[[0,0.5],[1,0.5]];portConstraint=eastwest;labelBackgroundColor=none;rounded=1;" vertex="1" parent="RQXcmn4yV_KDOGbdoK8P-47">
          <mxGeometry y="78" width="250" height="26" as="geometry" />
        </mxCell>
        <mxCell id="RQXcmn4yV_KDOGbdoK8P-51" value="(Table)Admin - Data of&amp;nbsp;payment" style="swimlane;html=1;fontStyle=1;align=center;verticalAlign=top;childLayout=stackLayout;horizontal=1;startSize=26;horizontalStack=0;resizeParent=1;resizeLast=0;collapsible=1;marginBottom=0;swimlaneFillColor=#ffffff;rounded=1;shadow=0;comic=0;labelBackgroundColor=none;strokeWidth=1;fontFamily=Verdana;fontSize=12;fillColor=#e1d5e7;strokeColor=#9673a6;" vertex="1" parent="1">
          <mxGeometry x="4208.43" y="1106" width="260" height="197" as="geometry" />
        </mxCell>
        <mxCell id="RQXcmn4yV_KDOGbdoK8P-52" style="edgeStyle=orthogonalEdgeStyle;rounded=1;orthogonalLoop=1;jettySize=auto;html=1;exitX=0;exitY=0.5;exitDx=0;exitDy=0;entryX=0;entryY=0.5;entryDx=0;entryDy=0;" edge="1" parent="RQXcmn4yV_KDOGbdoK8P-51" source="RQXcmn4yV_KDOGbdoK8P-53" target="RQXcmn4yV_KDOGbdoK8P-57">
          <mxGeometry relative="1" as="geometry" />
        </mxCell>
        <mxCell id="RQXcmn4yV_KDOGbdoK8P-53" value="+ admin time bonus" style="text;html=1;strokeColor=none;fillColor=none;align=left;verticalAlign=top;spacingLeft=4;spacingRight=4;whiteSpace=wrap;overflow=hidden;rotatable=0;points=[[0,0.5],[1,0.5]];portConstraint=eastwest;labelBackgroundColor=none;rounded=1;" vertex="1" parent="RQXcmn4yV_KDOGbdoK8P-51">
          <mxGeometry y="26" width="260" height="26" as="geometry" />
        </mxCell>
        <mxCell id="RQXcmn4yV_KDOGbdoK8P-54" style="edgeStyle=orthogonalEdgeStyle;rounded=1;orthogonalLoop=1;jettySize=auto;html=1;exitX=0;exitY=0.5;exitDx=0;exitDy=0;entryX=0;entryY=0.5;entryDx=0;entryDy=0;" edge="1" parent="RQXcmn4yV_KDOGbdoK8P-51" source="RQXcmn4yV_KDOGbdoK8P-55" target="RQXcmn4yV_KDOGbdoK8P-57">
          <mxGeometry relative="1" as="geometry">
            <Array as="points">
              <mxPoint x="-20" y="65" />
              <mxPoint x="-20" y="99" />
            </Array>
          </mxGeometry>
        </mxCell>
        <mxCell id="RQXcmn4yV_KDOGbdoK8P-55" value="+ percentage of payment(out of total income)" style="text;html=1;strokeColor=none;fillColor=none;align=left;verticalAlign=top;spacingLeft=4;spacingRight=4;whiteSpace=wrap;overflow=hidden;rotatable=0;points=[[0,0.5],[1,0.5]];portConstraint=eastwest;labelBackgroundColor=none;rounded=1;" vertex="1" parent="RQXcmn4yV_KDOGbdoK8P-51">
          <mxGeometry y="52" width="260" height="26" as="geometry" />
        </mxCell>
        <mxCell id="RQXcmn4yV_KDOGbdoK8P-56" value="" style="line;html=1;strokeWidth=1;fillColor=none;align=left;verticalAlign=middle;spacingTop=-1;spacingLeft=3;spacingRight=3;rotatable=0;labelPosition=right;points=[];portConstraint=eastwest;rounded=1;" vertex="1" parent="RQXcmn4yV_KDOGbdoK8P-51">
          <mxGeometry y="78" width="260" height="8" as="geometry" />
        </mxCell>
        <mxCell id="RQXcmn4yV_KDOGbdoK8P-57" value="+ get payment(): result payment" style="text;html=1;strokeColor=#9673a6;fillColor=#e1d5e7;align=left;verticalAlign=top;spacingLeft=4;spacingRight=4;whiteSpace=wrap;overflow=hidden;rotatable=0;points=[[0,0.5],[1,0.5]];portConstraint=eastwest;labelBackgroundColor=none;rounded=1;" vertex="1" parent="RQXcmn4yV_KDOGbdoK8P-51">
          <mxGeometry y="86" width="260" height="26" as="geometry" />
        </mxCell>
        <mxCell id="RQXcmn4yV_KDOGbdoK8P-58" style="edgeStyle=orthogonalEdgeStyle;rounded=1;orthogonalLoop=1;jettySize=auto;html=1;exitX=1;exitY=0.5;exitDx=0;exitDy=0;entryX=1;entryY=0.5;entryDx=0;entryDy=0;endArrow=none;endFill=0;startArrow=classic;startFill=1;fillColor=#e1d5e7;strokeColor=#9673a6;" edge="1" parent="1" source="RQXcmn4yV_KDOGbdoK8P-49" target="RQXcmn4yV_KDOGbdoK8P-57">
          <mxGeometry relative="1" as="geometry" />
        </mxCell>
        <mxCell id="RQXcmn4yV_KDOGbdoK8P-59" style="edgeStyle=orthogonalEdgeStyle;rounded=1;orthogonalLoop=1;jettySize=auto;html=1;exitX=1;exitY=0.5;exitDx=0;exitDy=0;entryX=0.5;entryY=0;entryDx=0;entryDy=0;endArrow=none;endFill=0;" edge="1" parent="1" source="RQXcmn4yV_KDOGbdoK8P-46" target="RQXcmn4yV_KDOGbdoK8P-47">
          <mxGeometry relative="1" as="geometry" />
        </mxCell>
        <mxCell id="RQXcmn4yV_KDOGbdoK8P-60" style="edgeStyle=orthogonalEdgeStyle;rounded=1;orthogonalLoop=1;jettySize=auto;html=1;exitX=0;exitY=0.5;exitDx=0;exitDy=0;entryX=0;entryY=0.5;entryDx=0;entryDy=0;fillColor=#dae8fc;strokeColor=#6c8ebf;" edge="1" parent="1" source="RQXcmn4yV_KDOGbdoK8P-23" target="RQXcmn4yV_KDOGbdoK8P-33">
          <mxGeometry relative="1" as="geometry">
            <Array as="points">
              <mxPoint x="3858.43" y="1042" />
              <mxPoint x="3858.43" y="1169" />
            </Array>
          </mxGeometry>
        </mxCell>
        <mxCell id="RQXcmn4yV_KDOGbdoK8P-61" style="edgeStyle=orthogonalEdgeStyle;rounded=1;orthogonalLoop=1;jettySize=auto;html=1;exitX=1;exitY=0.5;exitDx=0;exitDy=0;entryX=1;entryY=0.5;entryDx=0;entryDy=0;fillColor=#f8cecc;strokeColor=#b85450;" edge="1" parent="1" source="RQXcmn4yV_KDOGbdoK8P-12" target="RQXcmn4yV_KDOGbdoK8P-36">
          <mxGeometry relative="1" as="geometry" />
        </mxCell>
        <mxCell id="RQXcmn4yV_KDOGbdoK8P-62" style="edgeStyle=orthogonalEdgeStyle;rounded=1;orthogonalLoop=1;jettySize=auto;html=1;exitX=1;exitY=0.5;exitDx=0;exitDy=0;entryX=0;entryY=0.5;entryDx=0;entryDy=0;fillColor=#f8cecc;strokeColor=#b85450;" edge="1" parent="1" source="RQXcmn4yV_KDOGbdoK8P-7" target="RQXcmn4yV_KDOGbdoK8P-24">
          <mxGeometry relative="1" as="geometry" />
        </mxCell>
        <mxCell id="RQXcmn4yV_KDOGbdoK8P-63" value="(Table)List of Data for Analytics&amp;nbsp;" style="swimlane;html=1;fontStyle=1;align=center;verticalAlign=top;childLayout=stackLayout;horizontal=1;startSize=26;horizontalStack=0;resizeParent=1;resizeLast=0;collapsible=1;marginBottom=0;swimlaneFillColor=#ffffff;rounded=1;shadow=0;comic=0;labelBackgroundColor=none;strokeWidth=1;fillColor=none;fontFamily=Verdana;fontSize=12;" vertex="1" parent="1">
          <mxGeometry x="4908.43" y="640" width="240" height="60" as="geometry">
            <mxRectangle x="320" y="370" width="190" height="30" as="alternateBounds" />
          </mxGeometry>
        </mxCell>
        <mxCell id="RQXcmn4yV_KDOGbdoK8P-64" value="+ (Obj) analytic list" style="text;html=1;strokeColor=none;fillColor=none;align=left;verticalAlign=top;spacingLeft=4;spacingRight=4;whiteSpace=wrap;overflow=hidden;rotatable=0;points=[[0,0.5],[1,0.5]];portConstraint=eastwest;labelBackgroundColor=none;rounded=1;" vertex="1" parent="RQXcmn4yV_KDOGbdoK8P-63">
          <mxGeometry y="26" width="240" height="24" as="geometry" />
        </mxCell>
        <mxCell id="RQXcmn4yV_KDOGbdoK8P-65" value="(Table)Mentor history" style="swimlane;html=1;fontStyle=1;align=center;verticalAlign=top;childLayout=stackLayout;horizontal=1;startSize=26;horizontalStack=0;resizeParent=1;resizeLast=0;collapsible=1;marginBottom=0;swimlaneFillColor=#ffffff;rounded=1;shadow=0;comic=0;labelBackgroundColor=none;strokeWidth=1;fillColor=#d5e8d4;fontFamily=Verdana;fontSize=12;strokeColor=#82b366;" vertex="1" parent="1">
          <mxGeometry x="4258.43" y="1000" width="160" height="83" as="geometry" />
        </mxCell>
        <mxCell id="RQXcmn4yV_KDOGbdoK8P-66" value="+ info about sales" style="text;html=1;strokeColor=none;fillColor=none;align=left;verticalAlign=top;spacingLeft=4;spacingRight=4;whiteSpace=wrap;overflow=hidden;rotatable=0;points=[[0,0.5],[1,0.5]];portConstraint=eastwest;labelBackgroundColor=none;rounded=1;" vertex="1" parent="RQXcmn4yV_KDOGbdoK8P-65">
          <mxGeometry y="26" width="160" height="26" as="geometry" />
        </mxCell>
        <mxCell id="RQXcmn4yV_KDOGbdoK8P-67" value="+ info about admin time" style="text;html=1;align=left;verticalAlign=top;spacingLeft=4;spacingRight=4;whiteSpace=wrap;overflow=hidden;rotatable=0;points=[[0,0.5],[1,0.5]];portConstraint=eastwest;labelBackgroundColor=none;rounded=1;" vertex="1" parent="RQXcmn4yV_KDOGbdoK8P-65">
          <mxGeometry y="52" width="160" height="26" as="geometry" />
        </mxCell>
        <mxCell id="RQXcmn4yV_KDOGbdoK8P-68" style="edgeStyle=orthogonalEdgeStyle;rounded=1;orthogonalLoop=1;jettySize=auto;html=1;exitX=1;exitY=0.5;exitDx=0;exitDy=0;fillColor=#d5e8d4;strokeColor=#82b366;" edge="1" parent="1" source="RQXcmn4yV_KDOGbdoK8P-50" target="RQXcmn4yV_KDOGbdoK8P-65">
          <mxGeometry relative="1" as="geometry">
            <Array as="points">
              <mxPoint x="4478.43" y="851" />
              <mxPoint x="4478.43" y="970" />
              <mxPoint x="4338.43" y="970" />
            </Array>
          </mxGeometry>
        </mxCell>
        <mxCell id="RQXcmn4yV_KDOGbdoK8P-110" style="edgeStyle=orthogonalEdgeStyle;rounded=1;orthogonalLoop=1;jettySize=auto;html=1;exitX=0.75;exitY=0;exitDx=0;exitDy=0;fillColor=#dae8fc;strokeColor=#6c8ebf;" edge="1" parent="1" source="RQXcmn4yV_KDOGbdoK8P-69" target="RQXcmn4yV_KDOGbdoK8P-77">
          <mxGeometry relative="1" as="geometry">
            <mxPoint x="4778.276153846154" y="870" as="targetPoint" />
            <Array as="points">
              <mxPoint x="4778.43" y="890" />
              <mxPoint x="4778.43" y="890" />
            </Array>
          </mxGeometry>
        </mxCell>
        <mxCell id="RQXcmn4yV_KDOGbdoK8P-69" value="(Table)Sales Data" style="swimlane;html=1;fontStyle=1;align=center;verticalAlign=top;childLayout=stackLayout;horizontal=1;startSize=26;horizontalStack=0;resizeParent=1;resizeLast=0;collapsible=1;marginBottom=0;swimlaneFillColor=#ffffff;rounded=1;shadow=0;comic=0;labelBackgroundColor=none;strokeWidth=1;fillColor=#d5e8d4;fontFamily=Verdana;fontSize=12;strokeColor=#82b366;" vertex="1" parent="1">
          <mxGeometry x="4583.43" y="1000" width="260" height="120" as="geometry" />
        </mxCell>
        <mxCell id="RQXcmn4yV_KDOGbdoK8P-70" value="+ class of sale(expenditures and incomes)" style="text;html=1;strokeColor=default;fillColor=none;align=left;verticalAlign=top;spacingLeft=4;spacingRight=4;whiteSpace=wrap;overflow=hidden;rotatable=0;points=[[0,0.5],[1,0.5]];portConstraint=eastwest;labelBackgroundColor=none;rounded=1;" vertex="1" parent="RQXcmn4yV_KDOGbdoK8P-69">
          <mxGeometry y="26" width="260" height="26" as="geometry" />
        </mxCell>
        <mxCell id="RQXcmn4yV_KDOGbdoK8P-71" value="+ date of sale&amp;nbsp;" style="text;html=1;strokeColor=default;fillColor=none;align=left;verticalAlign=top;spacingLeft=4;spacingRight=4;whiteSpace=wrap;overflow=hidden;rotatable=0;points=[[0,0.5],[1,0.5]];portConstraint=eastwest;labelBackgroundColor=none;rounded=1;" vertex="1" parent="RQXcmn4yV_KDOGbdoK8P-69">
          <mxGeometry y="52" width="260" height="26" as="geometry" />
        </mxCell>
        <mxCell id="RQXcmn4yV_KDOGbdoK8P-72" value="+ sale details(member or admin, count, client...)" style="text;html=1;strokeColor=default;fillColor=none;align=left;verticalAlign=top;spacingLeft=4;spacingRight=4;whiteSpace=wrap;overflow=hidden;rotatable=0;points=[[0,0.5],[1,0.5]];portConstraint=eastwest;labelBackgroundColor=none;rounded=1;" vertex="1" parent="RQXcmn4yV_KDOGbdoK8P-69">
          <mxGeometry y="78" width="260" height="42" as="geometry" />
        </mxCell>
        <mxCell id="RQXcmn4yV_KDOGbdoK8P-73" style="edgeStyle=orthogonalEdgeStyle;rounded=1;orthogonalLoop=1;jettySize=auto;html=1;exitX=0.5;exitY=0;exitDx=0;exitDy=0;entryX=-0.004;entryY=0.199;entryDx=0;entryDy=0;entryPerimeter=0;" edge="1" parent="1" source="RQXcmn4yV_KDOGbdoK8P-74" target="RQXcmn4yV_KDOGbdoK8P-64">
          <mxGeometry relative="1" as="geometry" />
        </mxCell>
        <mxCell id="RQXcmn4yV_KDOGbdoK8P-74" value="(Table)List Of CashBox Data" style="swimlane;html=1;fontStyle=1;align=center;verticalAlign=top;childLayout=stackLayout;horizontal=1;startSize=26;horizontalStack=0;resizeParent=1;resizeLast=0;collapsible=1;marginBottom=0;swimlaneFillColor=#ffffff;rounded=1;shadow=0;comic=0;labelBackgroundColor=none;strokeWidth=1;fillColor=none;fontFamily=Verdana;fontSize=12;" vertex="1" parent="1">
          <mxGeometry x="4558.43" y="750" width="310" height="110" as="geometry" />
        </mxCell>
        <mxCell id="RQXcmn4yV_KDOGbdoK8P-75" value="+ date d of cashbox" style="text;html=1;strokeColor=none;fillColor=none;align=left;verticalAlign=top;spacingLeft=4;spacingRight=4;whiteSpace=wrap;overflow=hidden;rotatable=0;points=[[0,0.5],[1,0.5]];portConstraint=eastwest;labelBackgroundColor=none;rounded=1;" vertex="1" parent="RQXcmn4yV_KDOGbdoK8P-74">
          <mxGeometry y="26" width="310" height="26" as="geometry" />
        </mxCell>
        <mxCell id="RQXcmn4yV_KDOGbdoK8P-76" value="+ cashbox details(member or admin ...)" style="text;html=1;strokeColor=none;fillColor=none;align=left;verticalAlign=top;spacingLeft=4;spacingRight=4;whiteSpace=wrap;overflow=hidden;rotatable=0;points=[[0,0.5],[1,0.5]];portConstraint=eastwest;labelBackgroundColor=none;rounded=1;" vertex="1" parent="RQXcmn4yV_KDOGbdoK8P-74">
          <mxGeometry y="52" width="310" height="28" as="geometry" />
        </mxCell>
        <mxCell id="RQXcmn4yV_KDOGbdoK8P-77" value="+ list(d) list of sales" style="text;html=1;strokeColor=#82b366;fillColor=#d5e8d4;align=left;verticalAlign=top;spacingLeft=4;spacingRight=4;whiteSpace=wrap;overflow=hidden;rotatable=0;points=[[0,0.5],[1,0.5]];portConstraint=eastwest;labelBackgroundColor=none;rounded=1;" vertex="1" parent="RQXcmn4yV_KDOGbdoK8P-74">
          <mxGeometry y="80" width="310" height="30" as="geometry" />
        </mxCell>
        <mxCell id="RQXcmn4yV_KDOGbdoK8P-78" style="edgeStyle=orthogonalEdgeStyle;rounded=1;orthogonalLoop=1;jettySize=auto;html=1;exitX=0.5;exitY=1;exitDx=0;exitDy=0;" edge="1" parent="1" source="RQXcmn4yV_KDOGbdoK8P-80" target="RQXcmn4yV_KDOGbdoK8P-69">
          <mxGeometry relative="1" as="geometry" />
        </mxCell>
        <mxCell id="RQXcmn4yV_KDOGbdoK8P-79" style="edgeStyle=orthogonalEdgeStyle;rounded=1;orthogonalLoop=1;jettySize=auto;html=1;exitX=0.5;exitY=0;exitDx=0;exitDy=0;entryX=0.5;entryY=1.009;entryDx=0;entryDy=0;entryPerimeter=0;" edge="1" parent="1" source="RQXcmn4yV_KDOGbdoK8P-80" target="RQXcmn4yV_KDOGbdoK8P-77">
          <mxGeometry relative="1" as="geometry" />
        </mxCell>
        <mxCell id="RQXcmn4yV_KDOGbdoK8P-80" value="filter(Date d)" style="rounded=1;whiteSpace=wrap;html=1;fillColor=#d5e8d4;strokeColor=#82b366;" vertex="1" parent="1">
          <mxGeometry x="4678.43" y="910" width="70" height="30" as="geometry" />
        </mxCell>
        <mxCell id="RQXcmn4yV_KDOGbdoK8P-81" style="edgeStyle=orthogonalEdgeStyle;rounded=1;orthogonalLoop=1;jettySize=auto;html=1;exitX=0.5;exitY=0;exitDx=0;exitDy=0;entryX=0.5;entryY=1;entryDx=0;entryDy=0;" edge="1" parent="1" source="RQXcmn4yV_KDOGbdoK8P-82" target="RQXcmn4yV_KDOGbdoK8P-63">
          <mxGeometry relative="1" as="geometry" />
        </mxCell>
        <mxCell id="RQXcmn4yV_KDOGbdoK8P-82" value="(Table)List Of Payment Data" style="swimlane;html=1;fontStyle=1;align=center;verticalAlign=top;childLayout=stackLayout;horizontal=1;startSize=26;horizontalStack=0;resizeParent=1;resizeLast=0;collapsible=1;marginBottom=0;swimlaneFillColor=#ffffff;rounded=1;shadow=0;comic=0;labelBackgroundColor=none;strokeWidth=1;fillColor=none;fontFamily=Verdana;fontSize=12;" vertex="1" parent="1">
          <mxGeometry x="4898.43" y="750" width="310" height="120" as="geometry" />
        </mxCell>
        <mxCell id="RQXcmn4yV_KDOGbdoK8P-83" value="+ date d(month) of&amp;nbsp; payment" style="text;html=1;strokeColor=none;fillColor=none;align=left;verticalAlign=top;spacingLeft=4;spacingRight=4;whiteSpace=wrap;overflow=hidden;rotatable=0;points=[[0,0.5],[1,0.5]];portConstraint=eastwest;labelBackgroundColor=none;rounded=1;" vertex="1" parent="RQXcmn4yV_KDOGbdoK8P-82">
          <mxGeometry y="26" width="310" height="26" as="geometry" />
        </mxCell>
        <mxCell id="RQXcmn4yV_KDOGbdoK8P-84" value="+ payment details(member or admin,percentage of&amp;nbsp; &amp;nbsp; &amp;nbsp; &amp;nbsp; payment,count...)" style="text;html=1;strokeColor=none;fillColor=none;align=left;verticalAlign=top;spacingLeft=4;spacingRight=4;whiteSpace=wrap;overflow=hidden;rotatable=0;points=[[0,0.5],[1,0.5]];portConstraint=eastwest;labelBackgroundColor=none;rounded=1;" vertex="1" parent="RQXcmn4yV_KDOGbdoK8P-82">
          <mxGeometry y="52" width="310" height="38" as="geometry" />
        </mxCell>
        <mxCell id="RQXcmn4yV_KDOGbdoK8P-85" value="+ list of payments" style="text;html=1;strokeColor=#82b366;fillColor=#d5e8d4;align=left;verticalAlign=top;spacingLeft=4;spacingRight=4;whiteSpace=wrap;overflow=hidden;rotatable=0;points=[[0,0.5],[1,0.5]];portConstraint=eastwest;labelBackgroundColor=none;rounded=1;" vertex="1" parent="RQXcmn4yV_KDOGbdoK8P-82">
          <mxGeometry y="90" width="310" height="30" as="geometry" />
        </mxCell>
        <mxCell id="RQXcmn4yV_KDOGbdoK8P-86" value="(Table)Payment Data" style="swimlane;html=1;fontStyle=1;align=center;verticalAlign=top;childLayout=stackLayout;horizontal=1;startSize=26;horizontalStack=0;resizeParent=1;resizeLast=0;collapsible=1;marginBottom=0;swimlaneFillColor=#ffffff;rounded=1;shadow=0;comic=0;labelBackgroundColor=none;strokeWidth=1;fillColor=#d5e8d4;fontFamily=Verdana;fontSize=12;strokeColor=#82b366;" vertex="1" parent="1">
          <mxGeometry x="4898.43" y="980" width="310" height="90" as="geometry" />
        </mxCell>
        <mxCell id="RQXcmn4yV_KDOGbdoK8P-87" value="+ date d(month) of&amp;nbsp; payment" style="text;html=1;strokeColor=default;fillColor=none;align=left;verticalAlign=top;spacingLeft=4;spacingRight=4;whiteSpace=wrap;overflow=hidden;rotatable=0;points=[[0,0.5],[1,0.5]];portConstraint=eastwest;labelBackgroundColor=none;rounded=1;" vertex="1" parent="RQXcmn4yV_KDOGbdoK8P-86">
          <mxGeometry y="26" width="310" height="26" as="geometry" />
        </mxCell>
        <mxCell id="RQXcmn4yV_KDOGbdoK8P-88" value="+ payment details(member or admin,percentage of&amp;nbsp; &amp;nbsp; &amp;nbsp; &amp;nbsp; payment,count...)" style="text;html=1;align=left;verticalAlign=top;spacingLeft=4;spacingRight=4;whiteSpace=wrap;overflow=hidden;rotatable=0;points=[[0,0.5],[1,0.5]];portConstraint=eastwest;labelBackgroundColor=none;rounded=1;strokeColor=default;" vertex="1" parent="RQXcmn4yV_KDOGbdoK8P-86">
          <mxGeometry y="52" width="310" height="38" as="geometry" />
        </mxCell>
        <mxCell id="RQXcmn4yV_KDOGbdoK8P-89" style="edgeStyle=orthogonalEdgeStyle;rounded=1;orthogonalLoop=1;jettySize=auto;html=1;exitX=0.5;exitY=1;exitDx=0;exitDy=0;entryX=0.5;entryY=0;entryDx=0;entryDy=0;fillColor=#d5e8d4;strokeColor=#82b366;endArrow=none;endFill=0;startArrow=classic;startFill=1;" edge="1" parent="1" source="RQXcmn4yV_KDOGbdoK8P-91" target="RQXcmn4yV_KDOGbdoK8P-86">
          <mxGeometry relative="1" as="geometry" />
        </mxCell>
        <mxCell id="RQXcmn4yV_KDOGbdoK8P-90" style="edgeStyle=orthogonalEdgeStyle;rounded=1;orthogonalLoop=1;jettySize=auto;html=1;exitX=0.5;exitY=0;exitDx=0;exitDy=0;entryX=0.499;entryY=1.01;entryDx=0;entryDy=0;entryPerimeter=0;fillColor=#d5e8d4;strokeColor=#82b366;" edge="1" parent="1" source="RQXcmn4yV_KDOGbdoK8P-91" target="RQXcmn4yV_KDOGbdoK8P-85">
          <mxGeometry relative="1" as="geometry" />
        </mxCell>
        <mxCell id="RQXcmn4yV_KDOGbdoK8P-91" value="filter(Date d)" style="rounded=1;whiteSpace=wrap;html=1;fillColor=#d5e8d4;strokeColor=#82b366;" vertex="1" parent="1">
          <mxGeometry x="5018.43" y="900" width="70" height="30" as="geometry" />
        </mxCell>
        <mxCell id="RQXcmn4yV_KDOGbdoK8P-92" style="edgeStyle=orthogonalEdgeStyle;rounded=1;orthogonalLoop=1;jettySize=auto;html=1;exitX=0.5;exitY=0;exitDx=0;exitDy=0;entryX=1.008;entryY=0.199;entryDx=0;entryDy=0;entryPerimeter=0;" edge="1" parent="1" source="RQXcmn4yV_KDOGbdoK8P-93" target="RQXcmn4yV_KDOGbdoK8P-64">
          <mxGeometry relative="1" as="geometry" />
        </mxCell>
        <mxCell id="RQXcmn4yV_KDOGbdoK8P-93" value="(Table)List Of Clients Data" style="swimlane;html=1;fontStyle=1;align=center;verticalAlign=top;childLayout=stackLayout;horizontal=1;startSize=26;horizontalStack=0;resizeParent=1;resizeLast=0;collapsible=1;marginBottom=0;swimlaneFillColor=#ffffff;rounded=1;shadow=0;comic=0;labelBackgroundColor=none;strokeWidth=1;fillColor=none;fontFamily=Verdana;fontSize=12;" vertex="1" parent="1">
          <mxGeometry x="5268.43" y="760" width="310" height="82" as="geometry" />
        </mxCell>
        <mxCell id="RQXcmn4yV_KDOGbdoK8P-94" value="+ class of&amp;nbsp; client(active||none-active)" style="text;html=1;strokeColor=none;fillColor=none;align=left;verticalAlign=top;spacingLeft=4;spacingRight=4;whiteSpace=wrap;overflow=hidden;rotatable=0;points=[[0,0.5],[1,0.5]];portConstraint=eastwest;labelBackgroundColor=none;rounded=1;" vertex="1" parent="RQXcmn4yV_KDOGbdoK8P-93">
          <mxGeometry y="26" width="310" height="26" as="geometry" />
        </mxCell>
        <mxCell id="RQXcmn4yV_KDOGbdoK8P-95" value="+ list of&amp;nbsp; clients" style="text;html=1;strokeColor=#82b366;fillColor=#d5e8d4;align=left;verticalAlign=top;spacingLeft=4;spacingRight=4;whiteSpace=wrap;overflow=hidden;rotatable=0;points=[[0,0.5],[1,0.5]];portConstraint=eastwest;labelBackgroundColor=none;rounded=1;" vertex="1" parent="RQXcmn4yV_KDOGbdoK8P-93">
          <mxGeometry y="52" width="310" height="30" as="geometry" />
        </mxCell>
        <mxCell id="RQXcmn4yV_KDOGbdoK8P-96" style="edgeStyle=orthogonalEdgeStyle;rounded=1;orthogonalLoop=1;jettySize=auto;html=1;exitX=0.5;exitY=0;exitDx=0;exitDy=0;entryX=0.533;entryY=1.014;entryDx=0;entryDy=0;entryPerimeter=0;fillColor=#d5e8d4;strokeColor=#82b366;" edge="1" parent="1" source="RQXcmn4yV_KDOGbdoK8P-98" target="RQXcmn4yV_KDOGbdoK8P-95">
          <mxGeometry relative="1" as="geometry" />
        </mxCell>
        <mxCell id="RQXcmn4yV_KDOGbdoK8P-97" style="edgeStyle=orthogonalEdgeStyle;rounded=1;orthogonalLoop=1;jettySize=auto;html=1;exitX=0.5;exitY=1;exitDx=0;exitDy=0;entryX=0;entryY=0.132;entryDx=0;entryDy=0;entryPerimeter=0;fillColor=#d5e8d4;strokeColor=#82b366;endArrow=none;endFill=0;startArrow=classic;startFill=1;" edge="1" parent="1" source="RQXcmn4yV_KDOGbdoK8P-98" target="RQXcmn4yV_KDOGbdoK8P-4">
          <mxGeometry relative="1" as="geometry">
            <Array as="points">
              <mxPoint x="5433.43" y="1380" />
              <mxPoint x="3588.43" y="1380" />
              <mxPoint x="3588.43" y="770" />
            </Array>
          </mxGeometry>
        </mxCell>
        <mxCell id="RQXcmn4yV_KDOGbdoK8P-98" value="filter(Boolean a)" style="rounded=1;whiteSpace=wrap;html=1;fillColor=#d5e8d4;strokeColor=#82b366;" vertex="1" parent="1">
          <mxGeometry x="5383.43" y="890" width="100" height="30" as="geometry" />
        </mxCell>
        <mxCell id="RQXcmn4yV_KDOGbdoK8P-99" style="edgeStyle=orthogonalEdgeStyle;rounded=1;orthogonalLoop=1;jettySize=auto;html=1;exitX=0.5;exitY=0;exitDx=0;exitDy=0;entryX=1;entryY=0.25;entryDx=0;entryDy=0;" edge="1" parent="1" source="RQXcmn4yV_KDOGbdoK8P-100" target="RQXcmn4yV_KDOGbdoK8P-63">
          <mxGeometry relative="1" as="geometry" />
        </mxCell>
        <mxCell id="RQXcmn4yV_KDOGbdoK8P-100" value="(Table)List Of Staf" style="swimlane;html=1;fontStyle=1;align=center;verticalAlign=top;childLayout=stackLayout;horizontal=1;startSize=26;horizontalStack=0;resizeParent=1;resizeLast=0;collapsible=1;marginBottom=0;swimlaneFillColor=#ffffff;rounded=1;shadow=0;comic=0;labelBackgroundColor=none;strokeWidth=1;fillColor=none;fontFamily=Verdana;fontSize=12;" vertex="1" parent="1">
          <mxGeometry x="5648.43" y="760" width="310" height="82" as="geometry" />
        </mxCell>
        <mxCell id="RQXcmn4yV_KDOGbdoK8P-101" value="+ class of&amp;nbsp; staf(mentor||admin)" style="text;html=1;strokeColor=none;fillColor=none;align=left;verticalAlign=top;spacingLeft=4;spacingRight=4;whiteSpace=wrap;overflow=hidden;rotatable=0;points=[[0,0.5],[1,0.5]];portConstraint=eastwest;labelBackgroundColor=none;rounded=1;" vertex="1" parent="RQXcmn4yV_KDOGbdoK8P-100">
          <mxGeometry y="26" width="310" height="26" as="geometry" />
        </mxCell>
        <mxCell id="RQXcmn4yV_KDOGbdoK8P-102" value="+ list of&amp;nbsp; staf" style="text;html=1;strokeColor=#82b366;fillColor=#d5e8d4;align=left;verticalAlign=top;spacingLeft=4;spacingRight=4;whiteSpace=wrap;overflow=hidden;rotatable=0;points=[[0,0.5],[1,0.5]];portConstraint=eastwest;labelBackgroundColor=none;rounded=1;" vertex="1" parent="RQXcmn4yV_KDOGbdoK8P-100">
          <mxGeometry y="52" width="310" height="30" as="geometry" />
        </mxCell>
        <mxCell id="RQXcmn4yV_KDOGbdoK8P-103" style="edgeStyle=orthogonalEdgeStyle;rounded=1;orthogonalLoop=1;jettySize=auto;html=1;exitX=0.5;exitY=0;exitDx=0;exitDy=0;entryX=0.45;entryY=1.02;entryDx=0;entryDy=0;entryPerimeter=0;" edge="1" parent="1" source="RQXcmn4yV_KDOGbdoK8P-105" target="RQXcmn4yV_KDOGbdoK8P-102">
          <mxGeometry relative="1" as="geometry" />
        </mxCell>
        <mxCell id="RQXcmn4yV_KDOGbdoK8P-104" style="edgeStyle=orthogonalEdgeStyle;rounded=1;orthogonalLoop=1;jettySize=auto;html=1;exitX=0.5;exitY=1;exitDx=0;exitDy=0;entryX=1;entryY=0.5;entryDx=0;entryDy=0;endArrow=halfCircle;endFill=0;startArrow=none;startFill=0;fillColor=#d5e8d4;gradientColor=#97d077;strokeColor=#82b366;" edge="1" parent="1" source="RQXcmn4yV_KDOGbdoK8P-105" target="RQXcmn4yV_KDOGbdoK8P-108">
          <mxGeometry relative="1" as="geometry" />
        </mxCell>
        <mxCell id="RQXcmn4yV_KDOGbdoK8P-105" value="filter(Class s)" style="rounded=1;whiteSpace=wrap;html=1;fillColor=#d5e8d4;strokeColor=#82b366;" vertex="1" parent="1">
          <mxGeometry x="5738.43" y="910" width="100" height="30" as="geometry" />
        </mxCell>
        <mxCell id="RQXcmn4yV_KDOGbdoK8P-106" style="edgeStyle=orthogonalEdgeStyle;rounded=1;orthogonalLoop=1;jettySize=auto;html=1;exitX=0.5;exitY=0;exitDx=0;exitDy=0;fillColor=#f8cecc;gradientColor=#ea6b66;strokeColor=#b85450;endArrow=none;endFill=0;" edge="1" parent="1" source="RQXcmn4yV_KDOGbdoK8P-108">
          <mxGeometry relative="1" as="geometry">
            <mxPoint x="4338.43" y="960" as="targetPoint" />
            <Array as="points">
              <mxPoint x="4558.43" y="1430" />
              <mxPoint x="4558.43" y="990" />
              <mxPoint x="4338.43" y="990" />
            </Array>
          </mxGeometry>
        </mxCell>
        <mxCell id="RQXcmn4yV_KDOGbdoK8P-107" style="edgeStyle=orthogonalEdgeStyle;rounded=1;orthogonalLoop=1;jettySize=auto;html=1;exitX=0;exitY=0.5;exitDx=0;exitDy=0;entryX=0.5;entryY=1;entryDx=0;entryDy=0;fillColor=#f8cecc;gradientColor=#ea6b66;strokeColor=#b85450;startArrow=classic;startFill=1;endArrow=none;endFill=0;" edge="1" parent="1" source="RQXcmn4yV_KDOGbdoK8P-108" target="RQXcmn4yV_KDOGbdoK8P-10">
          <mxGeometry relative="1" as="geometry">
            <Array as="points">
              <mxPoint x="3858.43" y="1490" />
              <mxPoint x="3858.43" y="970" />
              <mxPoint x="4003.43" y="970" />
            </Array>
          </mxGeometry>
        </mxCell>
        <mxCell id="RQXcmn4yV_KDOGbdoK8P-112" style="edgeStyle=orthogonalEdgeStyle;rounded=1;orthogonalLoop=1;jettySize=auto;html=1;exitX=0.5;exitY=1;exitDx=0;exitDy=0;entryX=-0.004;entryY=0.07;entryDx=0;entryDy=0;entryPerimeter=0;fillColor=#dae8fc;strokeColor=#6c8ebf;" edge="1" parent="1" source="RQXcmn4yV_KDOGbdoK8P-1" target="RQXcmn4yV_KDOGbdoK8P-10">
          <mxGeometry relative="1" as="geometry">
            <mxPoint x="4208.43" y="1490" as="sourcePoint" />
            <mxPoint x="3848.43" y="760.0469999999998" as="targetPoint" />
            <Array as="points">
              <mxPoint x="4783.43" y="1560" />
              <mxPoint x="3838.43" y="1560" />
              <mxPoint x="3838.43" y="764" />
            </Array>
          </mxGeometry>
        </mxCell>
        <mxCell id="RQXcmn4yV_KDOGbdoK8P-108" value="List get staf()" style="rounded=1;whiteSpace=wrap;html=1;fillColor=#f8cecc;gradientColor=#ea6b66;strokeColor=#b85450;" vertex="1" parent="1">
          <mxGeometry x="4238.43" y="1460" width="120" height="60" as="geometry" />
        </mxCell>
        <mxCell id="RQXcmn4yV_KDOGbdoK8P-118" style="edgeStyle=orthogonalEdgeStyle;rounded=1;orthogonalLoop=1;jettySize=auto;html=1;exitX=1;exitY=0.5;exitDx=0;exitDy=0;entryX=0;entryY=0.5;entryDx=0;entryDy=0;fillColor=#dae8fc;strokeColor=#6c8ebf;" edge="1" parent="1" source="RQXcmn4yV_KDOGbdoK8P-115" target="RQXcmn4yV_KDOGbdoK8P-42">
          <mxGeometry relative="1" as="geometry" />
        </mxCell>
        <mxCell id="RQXcmn4yV_KDOGbdoK8P-115" value="&lt;div style=&quot;&quot;&gt;&lt;font style=&quot;font-size: 22px;&quot;&gt;сlient verification&lt;/font&gt;&lt;br&gt;&lt;/div&gt;" style="text;html=1;fillColor=#dae8fc;align=right;verticalAlign=middle;whiteSpace=wrap;rounded=1;strokeColor=#6c8ebf;" vertex="1" parent="1">
          <mxGeometry x="3290" y="827" width="170" height="80" as="geometry" />
        </mxCell>
      </root>
    </mxGraphModel>
  </diagram>
</mxfile>
